<svg xmlns="http://www.w3.org/2000/svg" xmlns:xlink="http://www.w3.org/1999/xlink" viewBox="0 0 1080 1080" height="66.61"><defs><linearGradient id="Áåçûìÿííûé_ãðàäèåíò_60" x1="3079.94" y1="1050.58" x2="3282.69" y2="1050.58" gradientTransform="matrix(-1, 0, 0, 1, 3809.82, -95.56)" gradientUnits="userSpaceOnUse"><stop offset="0" stop-color="#898989"/><stop offset="0.98" stop-color="#5d3b81"/></linearGradient><linearGradient id="Áåçûìÿííûé_ãðàäèåíò_160" x1="3621.85" y1="1049.5" x2="3621.85" y2="1021.19" gradientTransform="matrix(-1, 0, 0, 1, 3809.82, -95.56)" gradientUnits="userSpaceOnUse"><stop offset="0.01" stop-color="#3f1742"/><stop offset="1" stop-color="#531732"/></linearGradient><linearGradient id="Áåçûìÿííûé_ãðàäèåíò_60-2" x1="3554.11" y1="914.11" x2="3692.42" y2="914.11" xlink:href="#Áåçûìÿííûé_ãðàäèåíò_60"/><linearGradient id="Áåçûìÿííûé_ãðàäèåíò_146" x1="3600.77" y1="1057.42" x2="3600.77" y2="968.83" gradientTransform="matrix(-1, 0, 0, 1, 3809.82, -95.56)" gradientUnits="userSpaceOnUse"><stop offset="0.01" stop-color="#3f1742"/><stop offset="1" stop-color="#a43a45"/></linearGradient><linearGradient id="Áåçûìÿííûé_ãðàäèåíò_12" x1="3098.49" y1="1819.1" x2="3239.35" y2="1819.1" gradientTransform="matrix(-0.95, -0.32, -0.32, 0.95, 3938.75, 348.66)" gradientUnits="userSpaceOnUse"><stop offset="0.01" stop-color="#281742"/><stop offset="1" stop-color="#322d45"/></linearGradient><radialGradient id="Áåçûìÿííûé_ãðàäèåíò_103" cx="3173.03" cy="1000.61" r="592.7" gradientTransform="matrix(-0.95, -0.32, -0.32, 0.95, 3938.75, 348.66)" gradientUnits="userSpaceOnUse"><stop offset="0.01" stop-color="gold"/><stop offset="0.2" stop-color="#fed400"/><stop offset="0.37" stop-color="#fbc900"/><stop offset="0.52" stop-color="#f6b800"/><stop offset="0.67" stop-color="#ef9f00"/><stop offset="0.81" stop-color="#e67f00"/><stop offset="0.82" stop-color="#e57c00"/><stop offset="0.85" stop-color="#e27504"/><stop offset="0.9" stop-color="#da620e"/><stop offset="0.95" stop-color="#ce431f"/><stop offset="0.96" stop-color="#ca3924"/></radialGradient><clipPath id="clip-path"><path d="M193.89,254.43C272.59,57.19,480-22,680.18,48.15c201.3,66.8,317,256.32,258.74,460.52S657.13,811.31,616,837.17s-62.55,83.1-62.55,83.1l-173.4,7.3L247.3,815.79s18-58.42,1.31-104S115.19,451.66,193.89,254.43Z" fill="none" clip-rule="evenodd"/></clipPath><linearGradient id="Áåçûìÿííûé_ãðàäèåíò_44" x1="3013.44" y1="1698.45" x2="3350.49" y2="1698.45" gradientTransform="matrix(-0.95, -0.32, -0.32, 0.95, 3938.75, 348.66)" gradientUnits="userSpaceOnUse"><stop offset="0.03" stop-color="#a5a4c1"/><stop offset="0.27" stop-color="#8268a9"/><stop offset="1" stop-color="#b8b8b8"/></linearGradient><linearGradient id="Áåçûìÿííûé_ãðàäèåíò_53" x1="2994.02" y1="1636.59" x2="3375.95" y2="1636.59" gradientTransform="matrix(-0.95, -0.32, -0.32, 0.95, 3938.75, 348.66)" gradientUnits="userSpaceOnUse"><stop offset="0.03" stop-color="#dfccdc"/><stop offset="0.27" stop-color="#9680b7"/><stop offset="1" stop-color="#cfcfcf"/></linearGradient><linearGradient id="Áåçûìÿííûé_ãðàäèåíò_319" x1="2994.02" y1="1642.34" x2="3375.95" y2="1642.34" gradientTransform="matrix(-0.95, -0.32, -0.32, 0.95, 3938.75, 348.66)" gradientUnits="userSpaceOnUse"><stop offset="0" stop-color="#540068"/><stop offset="1" stop-color="#90939a"/></linearGradient><linearGradient id="Áåçûìÿííûé_ãðàäèåíò_53-2" x1="3013.44" y1="1740.78" x2="3350.49" y2="1740.78" xlink:href="#Áåçûìÿííûé_ãðàäèåíò_53"/><linearGradient id="Áåçûìÿííûé_ãðàäèåíò_319-2" x1="3013.44" y1="1744.49" x2="3350.49" y2="1744.49" xlink:href="#Áåçûìÿííûé_ãðàäèåíò_319"/><radialGradient id="Áåçûìÿííûé_ãðàäèåíò_73" cx="-1463.48" cy="1406.71" r="204.17" gradientTransform="matrix(0, 0.79, -1, 0, 2107.49, 1733.9)" gradientUnits="userSpaceOnUse"><stop offset="0.01" stop-color="#ff9000"/><stop offset="0.26" stop-color="#fe8d03"/><stop offset="0.48" stop-color="#fa820c"/><stop offset="0.69" stop-color="#f4711c"/><stop offset="0.88" stop-color="#ec5831"/><stop offset="1" stop-color="#e54542"/></radialGradient><radialGradient id="Áåçûìÿííûé_ãðàäèåíò_79" cx="2947.67" cy="1190.7" r="173.29" gradientTransform="matrix(-0.95, -0.32, -0.32, 0.95, 3938.75, 348.66)" gradientUnits="userSpaceOnUse"><stop offset="0.01" stop-color="#fff"/><stop offset="0.24" stop-color="#fdfcfc"/><stop offset="0.44" stop-color="#f6f1f3"/><stop offset="0.63" stop-color="#ece0e5"/><stop offset="0.81" stop-color="#dcc7d0"/><stop offset="0.98" stop-color="#c9a7b6"/><stop offset="1" stop-color="#c7a4b3"/></radialGradient><clipPath id="clip-path-2"><path d="M717.35,569.05c-23,38.75-16.9,84.83,13.6,102.92s73.85,1.33,96.83-37.42,16.9-84.82-13.6-102.91S740.33,530.3,717.35,569.05Z" fill="none" clip-rule="evenodd"/></clipPath><radialGradient id="Áåçûìÿííûé_ãðàäèåíò_91" cx="2869.71" cy="1729.01" r="60.69" gradientTransform="matrix(-0.68, -0.4, -0.51, 0.86, 3593.74, 289.65)" gradientUnits="userSpaceOnUse"><stop offset="0.01" stop-color="#3b1400"/><stop offset="0.38" stop-color="#391203"/><stop offset="0.66" stop-color="#340d0d"/><stop offset="0.92" stop-color="#2b041d"/><stop offset="1" stop-color="#270024"/></radialGradient><linearGradient id="Áåçûìÿííûé_ãðàäèåíò_105" x1="3007.99" y1="1594.74" x2="3007.99" y2="1454.88" gradientTransform="matrix(-0.95, -0.32, -0.32, 0.95, 3938.75, 348.66)" gradientUnits="userSpaceOnUse"><stop offset="0.01" stop-color="#ffc048"/><stop offset="0.18" stop-color="#c59438"/><stop offset="0.4" stop-color="#806024"/><stop offset="0.6" stop-color="#493715"/><stop offset="0.78" stop-color="#211909"/><stop offset="0.92" stop-color="#090703"/><stop offset="1"/></linearGradient><linearGradient id="Áåçûìÿííûé_ãðàäèåíò_105-2" x1="3358.38" y1="1586.71" x2="3358.38" y2="1463.68" xlink:href="#Áåçûìÿííûé_ãðàäèåíò_105"/><radialGradient id="Áåçûìÿííûé_ãðàäèåíò_267" cx="3404.57" cy="814.48" r="110.86" gradientTransform="matrix(-0.99, -0.11, -0.11, 0.99, 3870.03, 51.9)" gradientUnits="userSpaceOnUse"><stop offset="0.01" stop-color="#bf6f00"/><stop offset="0.28" stop-color="#be6c03"/><stop offset="0.51" stop-color="#bd620e"/><stop offset="0.73" stop-color="#ba511f"/><stop offset="0.93" stop-color="#b73938"/><stop offset="1" stop-color="#b52f42"/></radialGradient><radialGradient id="Áåçûìÿííûé_ãðàäèåíò_88" cx="3352.33" cy="670.48" r="62.83" gradientTransform="matrix(-1, 0, 0, 1, 3809.82, -95.56)" gradientUnits="userSpaceOnUse"><stop offset="0.01" stop-color="#ff7a00"/><stop offset="0.27" stop-color="#fe7702"/><stop offset="0.49" stop-color="#f96c09"/><stop offset="0.69" stop-color="#f35b14"/><stop offset="0.89" stop-color="#e94223"/><stop offset="1" stop-color="#e2312e"/></radialGradient><linearGradient id="Áåçûìÿííûé_ãðàäèåíò_160-2" x1="3122.83" y1="640.95" x2="3122.83" y2="544.81" gradientTransform="matrix(-0.99, 0.17, 0.17, 0.99, 3689.56, -203.55)" xlink:href="#Áåçûìÿííûé_ãðàäèåíò_160"/><linearGradient id="Áåçûìÿííûé_ãðàäèåíò_160-3" x1="3106.44" y1="559.29" x2="3106.44" y2="485.89" gradientTransform="matrix(-0.99, 0.17, 0.17, 0.99, 3689.56, -203.55)" xlink:href="#Áåçûìÿííûé_ãðàäèåíò_160"/><linearGradient id="Áåçûìÿííûé_ãðàäèåíò_156" x1="3380.29" y1="716.35" x2="3380.29" y2="642.47" gradientTransform="matrix(-1, 0, 0, 1, 3809.82, -95.56)" gradientUnits="userSpaceOnUse"><stop offset="0.01" stop-color="#771742"/><stop offset="1" stop-color="#b82d3b"/></linearGradient><radialGradient id="Áåçûìÿííûé_ãðàäèåíò_279" cx="3082.47" cy="580.9" r="79.92" gradientTransform="matrix(-0.99, 0.17, 0.17, 0.99, 3689.56, -203.55)" gradientUnits="userSpaceOnUse"><stop offset="0.01" stop-color="#b8b5db"/><stop offset="0.34" stop-color="#b7b2d8"/><stop offset="0.62" stop-color="#b6a7ce"/><stop offset="0.88" stop-color="#b396bd"/><stop offset="1" stop-color="#b18bb3"/></radialGradient><linearGradient id="Áåçûìÿííûé_ãðàäèåíò_146-2" x1="3078.01" y1="660.93" x2="3078.01" y2="513.45" gradientTransform="matrix(-0.99, 0.17, 0.17, 0.99, 3689.56, -203.55)" xlink:href="#Áåçûìÿííûé_ãðàäèåíò_146"/><radialGradient id="Áåçûìÿííûé_ãðàäèåíò_167" cx="2841.89" cy="1319.12" r="111.05" gradientTransform="matrix(0, -1, -1.06, 0, 2246.36, 3502.12)" gradientUnits="userSpaceOnUse"><stop offset="0.01" stop-color="#847cb5"/><stop offset="0.42" stop-color="#877ab2"/><stop offset="0.77" stop-color="#9274a9"/><stop offset="1" stop-color="#9d6d9f"/></radialGradient><radialGradient id="Áåçûìÿííûé_ãðàäèåíò_167-2" cx="1381.62" cy="757.87" r="144.16" gradientTransform="translate(-552.2 -95.56)" xlink:href="#Áåçûìÿííûé_ãðàäèåíò_167"/><radialGradient id="Áåçûìÿííûé_ãðàäèåíò_279-2" cx="1400.31" cy="761.28" r="138.52" gradientTransform="translate(-552.2 -95.56)" xlink:href="#Áåçûìÿííûé_ãðàäèåíò_279"/><linearGradient id="Áåçûìÿííûé_ãðàäèåíò_160-4" x1="3049.28" y1="967.93" x2="3049.28" y2="941.55" xlink:href="#Áåçûìÿííûé_ãðàäèåíò_160"/><linearGradient id="Áåçûìÿííûé_ãðàäèåíò_160-5" x1="3066.63" y1="1033.36" x2="3066.63" y2="1019.48" xlink:href="#Áåçûìÿííûé_ãðàäèåíò_160"/><linearGradient id="Áåçûìÿííûé_ãðàäèåíò_169" x1="2997.28" y1="641.65" x2="2990.33" y2="598.74" gradientTransform="matrix(-1, 0, 0, 1, 3809.82, -95.56)" gradientUnits="userSpaceOnUse"><stop offset="0"/><stop offset="0.08" stop-color="#090703"/><stop offset="0.22" stop-color="#211909"/><stop offset="0.4" stop-color="#493715"/><stop offset="0.6" stop-color="#806024"/><stop offset="0.82" stop-color="#c59438"/><stop offset="0.99" stop-color="#ffc048"/></linearGradient></defs><g style="isolation:isolate"><g id="Layer_1" data-name="Layer 1"><path d="M553.48,920.27s8.24,31.88,44.58,34.76c39.16,3.1,92.06-37.46,92.06-37.46l39.76,31.23s-82.29,52.7-141.71,42.33c-30.88-5.39-61-37.19-61-37.19S529.26,924.53,553.48,920.27Z" fill-rule="evenodd" fill="url(#Áåçûìÿííûé_ãðàäèåíò_60)"/><path d="M199.43,925.63H178.61s-11.4,10.11-11.72,21.74l26.47,6.57,15.7-5.56Z" fill-rule="evenodd" fill="url(#Áåçûìÿííûé_ãðàäèåíò_160)"/><path d="M255.72,755.88s-84.93-44.45-129.27,0c-41,41,70.57,145,70.57,145s24.06,3.12,30.43-20.18c0,0-85.69-83.27-65.54-110.06C182.5,743.23,248.42,782,248.42,782Z" fill-rule="evenodd" fill="url(#Áåçûìÿííûé_ãðàäèåíò_60-2)"/><path d="M217,873.27s-20.85,5.76-24.27,23.92c0,0-9.48,20.69,6,41.67L178.61,945s-7.33,10.11,0,16.85h50l14.13-55.32S240.64,881.78,217,873.27Z" fill-rule="evenodd" fill="url(#Áåçûìÿííûé_ãðàäèåíò_146)"/><path d="M422.93,1057.27s-44.1,18.63-82.06,1.88c-32.93-14.53-50.34-50.05-50.34-50.05Z" fill-rule="evenodd" fill="url(#Áåçûìÿííûé_ãðàäèåíò_12)"/><path d="M193.89,254.43C272.59,57.19,480-22,680.18,48.15c201.3,66.8,317,256.32,258.74,460.52S657.13,811.31,616,837.17s-62.55,83.1-62.55,83.1l-173.4,7.3L247.3,815.79s18-58.42,1.31-104S115.19,451.66,193.89,254.43Z" fill-rule="evenodd" fill="url(#Áåçûìÿííûé_ãðàäèåíò_103)"/><g style="mix-blend-mode:screen"><path d="M536.12,37.38c46.38,0,93.24,8.19,139.3,24.34,199.19,66.1,304.09,252.37,249.68,443-49.52,173.48-226.69,270.52-293.38,307-10,5.5-18,9.84-23.35,13.23-34.91,22-56.41,63.11-64.6,81.29L385.06,913,263.54,810.66c4.63-19.39,12.78-65.11-1.43-103.83-2.19-6-5.81-14.25-10.39-24.74-30.45-69.68-111.33-254.78-44.47-422.33,27.65-69.3,73.41-126.41,132.34-165.17C396.5,57.16,464.46,37.38,536.12,37.38Zm0-14.38c-148.58,0-282.5,81.73-342.23,231.43-78.7,197.23,38,411.77,54.72,457.36s-1.31,104-1.31,104L380.08,927.57l173.4-7.3S574.92,863,616,837.17s264.6-124.3,322.89-328.5S881.48,115,680.18,48.15C631.94,31.24,583.3,23,536.12,23Z" fill="#ffff9a"/></g><g style="mix-blend-mode:screen"><g clip-path="url(#clip-path)"><rect x="115.19" y="-22.04" width="882.02" height="949.61" fill="#ff0"/><ellipse cx="523.69" cy="464.51" rx="437.78" ry="364.3" transform="translate(-73.26 830.11) rotate(-73.06)" fill="#ff0"/><ellipse cx="523.69" cy="464.51" rx="436.58" ry="363.31" transform="translate(-73.26 830.11) rotate(-73.06)" fill="#fafa00"/><ellipse cx="523.69" cy="464.51" rx="435.38" ry="362.31" transform="translate(-73.26 830.11) rotate(-73.06)" fill="#f5f500"/><ellipse cx="523.69" cy="464.51" rx="434.19" ry="361.31" transform="matrix(0.29, -0.96, 0.96, 0.29, -73.26, 830.11)" fill="#f0f000"/><ellipse cx="523.69" cy="464.51" rx="432.99" ry="360.31" transform="translate(-73.26 830.11) rotate(-73.06)" fill="#ecec00"/><ellipse cx="523.69" cy="464.51" rx="431.79" ry="359.32" transform="translate(-73.26 830.11) rotate(-73.06)" fill="#e7e700"/><ellipse cx="523.69" cy="464.51" rx="430.59" ry="358.32" transform="translate(-73.26 830.11) rotate(-73.06)" fill="#e2e200"/><ellipse cx="523.69" cy="464.51" rx="429.39" ry="357.32" transform="translate(-73.26 830.11) rotate(-73.06)" fill="#dede00"/><ellipse cx="523.69" cy="464.51" rx="428.2" ry="356.33" transform="matrix(0.29, -0.96, 0.96, 0.29, -73.26, 830.11)" fill="#d9d900"/><ellipse cx="523.69" cy="464.51" rx="427" ry="355.33" transform="translate(-73.26 830.11) rotate(-73.06)" fill="#d5d500"/><ellipse cx="523.69" cy="464.51" rx="425.8" ry="354.33" transform="translate(-73.26 830.11) rotate(-73.06)" fill="#d1d100"/><ellipse cx="523.69" cy="464.51" rx="424.6" ry="353.33" transform="matrix(0.29, -0.96, 0.96, 0.29, -73.26, 830.1)" fill="#cdcd00"/><ellipse cx="523.69" cy="464.51" rx="423.4" ry="352.34" transform="translate(-73.26 830.11) rotate(-73.06)" fill="#c8c800"/><ellipse cx="523.69" cy="464.51" rx="422.2" ry="351.34" transform="translate(-73.26 830.11) rotate(-73.06)" fill="#c4c400"/><ellipse cx="523.69" cy="464.51" rx="421.01" ry="350.34" transform="matrix(0.29, -0.96, 0.96, 0.29, -73.26, 830.11)" fill="#c0c000"/><ellipse cx="523.69" cy="464.51" rx="419.81" ry="349.35" transform="translate(-73.26 830.11) rotate(-73.06)" fill="#bcbc00"/><ellipse cx="523.69" cy="464.51" rx="418.61" ry="348.35" transform="translate(-73.26 830.11) rotate(-73.06)" fill="#b8b800"/><ellipse cx="523.69" cy="464.51" rx="417.41" ry="347.35" transform="translate(-73.26 830.1) rotate(-73.06)" fill="#b5b500"/><ellipse cx="523.69" cy="464.51" rx="416.21" ry="346.36" transform="translate(-73.26 830.11) rotate(-73.06)" fill="#b1b100"/><ellipse cx="523.69" cy="464.51" rx="415.02" ry="345.36" transform="translate(-73.26 830.11) rotate(-73.06)" fill="#adad00"/><ellipse cx="523.69" cy="464.51" rx="413.82" ry="344.36" transform="translate(-73.26 830.11) rotate(-73.06)" fill="#aa0"/><ellipse cx="523.69" cy="464.51" rx="412.62" ry="343.36" transform="translate(-73.26 830.11) rotate(-73.06)" fill="#a6a600"/><ellipse cx="523.69" cy="464.51" rx="411.42" ry="342.37" transform="translate(-73.26 830.11) rotate(-73.06)" fill="#a2a200"/><ellipse cx="523.69" cy="464.51" rx="410.22" ry="341.37" transform="translate(-73.26 830.11) rotate(-73.06)" fill="#9f9f00"/><ellipse cx="523.69" cy="464.51" rx="409.03" ry="340.37" transform="translate(-73.26 830.11) rotate(-73.06)" fill="#9c9c00"/><ellipse cx="523.69" cy="464.51" rx="407.83" ry="339.38" transform="translate(-73.26 830.11) rotate(-73.06)" fill="#989800"/><ellipse cx="523.69" cy="464.51" rx="406.63" ry="338.38" transform="translate(-73.26 830.11) rotate(-73.06)" fill="#959500"/><ellipse cx="523.69" cy="464.51" rx="405.43" ry="337.38" transform="translate(-73.26 830.11) rotate(-73.06)" fill="#929200"/><ellipse cx="523.69" cy="464.51" rx="404.23" ry="336.38" transform="translate(-73.26 830.11) rotate(-73.06)" fill="#8f8f00"/><ellipse cx="523.69" cy="464.51" rx="403.03" ry="335.39" transform="translate(-73.26 830.11) rotate(-73.06)" fill="#8b8b00"/><ellipse cx="523.69" cy="464.51" rx="401.84" ry="334.39" transform="translate(-73.26 830.11) rotate(-73.06)" fill="#880"/><ellipse cx="523.69" cy="464.51" rx="400.64" ry="333.39" transform="translate(-73.26 830.11) rotate(-73.06)" fill="#858500"/><ellipse cx="523.69" cy="464.51" rx="399.44" ry="332.4" transform="translate(-73.26 830.11) rotate(-73.06)" fill="#828200"/><ellipse cx="523.69" cy="464.51" rx="398.24" ry="331.4" transform="translate(-73.26 830.11) rotate(-73.06)" fill="olive"/><ellipse cx="523.69" cy="464.51" rx="397.04" ry="330.4" transform="translate(-73.26 830.11) rotate(-73.06)" fill="#7d7d00"/><ellipse cx="523.69" cy="464.51" rx="395.85" ry="329.41" transform="translate(-73.26 830.11) rotate(-73.06)" fill="#7a7a00"/><ellipse cx="523.69" cy="464.51" rx="394.65" ry="328.41" transform="translate(-73.26 830.11) rotate(-73.06)" fill="#770"/><ellipse cx="523.69" cy="464.51" rx="393.45" ry="327.41" transform="translate(-73.26 830.11) rotate(-73.06)" fill="#747400"/><ellipse cx="523.69" cy="464.51" rx="392.25" ry="326.41" transform="translate(-73.26 830.11) rotate(-73.06)" fill="#727200"/><ellipse cx="523.69" cy="464.51" rx="391.05" ry="325.42" transform="translate(-73.26 830.11) rotate(-73.06)" fill="#6f6f00"/><ellipse cx="523.69" cy="464.51" rx="389.85" ry="324.42" transform="translate(-73.26 830.11) rotate(-73.06)" fill="#6d6d00"/><ellipse cx="523.69" cy="464.51" rx="388.66" ry="323.42" transform="translate(-73.26 830.11) rotate(-73.06)" fill="#6a6a00"/><ellipse cx="523.69" cy="464.51" rx="387.46" ry="322.43" transform="translate(-73.26 830.11) rotate(-73.06)" fill="#686800"/><ellipse cx="523.69" cy="464.51" rx="386.26" ry="321.43" transform="translate(-73.26 830.11) rotate(-73.06)" fill="#656500"/><ellipse cx="523.69" cy="464.51" rx="385.06" ry="320.43" transform="translate(-73.26 830.11) rotate(-73.06)" fill="#636300"/><ellipse cx="523.69" cy="464.51" rx="383.86" ry="319.43" transform="translate(-73.26 830.11) rotate(-73.06)" fill="#616100"/><ellipse cx="523.69" cy="464.51" rx="382.66" ry="318.44" transform="translate(-73.26 830.11) rotate(-73.06)" fill="#5e5e00"/><ellipse cx="523.69" cy="464.51" rx="381.47" ry="317.44" transform="translate(-73.26 830.11) rotate(-73.06)" fill="#5c5c00"/><ellipse cx="523.69" cy="464.51" rx="380.27" ry="316.44" transform="translate(-73.26 830.11) rotate(-73.06)" fill="#5a5a00"/><ellipse cx="523.69" cy="464.51" rx="379.07" ry="315.45" transform="translate(-73.26 830.11) rotate(-73.06)" fill="#585800"/><ellipse cx="523.69" cy="464.51" rx="377.87" ry="314.45" transform="translate(-73.26 830.11) rotate(-73.06)" fill="#565600"/><ellipse cx="523.69" cy="464.51" rx="376.67" ry="313.45" transform="translate(-73.26 830.11) rotate(-73.06)" fill="#545400"/><ellipse cx="523.69" cy="464.51" rx="375.48" ry="312.46" transform="translate(-73.26 830.11) rotate(-73.06)" fill="#525200"/><ellipse cx="523.69" cy="464.51" rx="374.28" ry="311.46" transform="translate(-73.26 830.11) rotate(-73.06)" fill="#505000"/><ellipse cx="523.69" cy="464.51" rx="373.08" ry="310.46" transform="translate(-73.26 830.11) rotate(-73.06)" fill="#4e4e00"/><ellipse cx="523.69" cy="464.51" rx="371.88" ry="309.46" transform="translate(-73.26 830.11) rotate(-73.06)" fill="#4c4c00"/><ellipse cx="523.69" cy="464.51" rx="370.68" ry="308.47" transform="translate(-73.26 830.11) rotate(-73.06)" fill="#4a4a00"/><ellipse cx="523.69" cy="464.51" rx="369.49" ry="307.47" transform="translate(-73.26 830.11) rotate(-73.06)" fill="#484800"/><ellipse cx="523.69" cy="464.51" rx="368.29" ry="306.47" transform="translate(-73.26 830.11) rotate(-73.06)" fill="#464600"/><ellipse cx="523.69" cy="464.51" rx="367.09" ry="305.48" transform="translate(-73.26 830.11) rotate(-73.06)" fill="#440"/><ellipse cx="523.69" cy="464.51" rx="365.89" ry="304.48" transform="translate(-73.26 830.11) rotate(-73.06)" fill="#434300"/><ellipse cx="523.69" cy="464.51" rx="364.69" ry="303.48" transform="translate(-73.26 830.11) rotate(-73.06)" fill="#414100"/><ellipse cx="523.69" cy="464.51" rx="363.49" ry="302.48" transform="translate(-73.26 830.11) rotate(-73.06)" fill="#3f3f00"/><ellipse cx="523.69" cy="464.51" rx="362.3" ry="301.49" transform="translate(-73.26 830.11) rotate(-73.06)" fill="#3e3e00"/><ellipse cx="523.69" cy="464.51" rx="361.1" ry="300.49" transform="translate(-73.26 830.11) rotate(-73.06)" fill="#3c3c00"/><ellipse cx="523.69" cy="464.51" rx="359.9" ry="299.49" transform="translate(-73.26 830.11) rotate(-73.06)" fill="#3b3b00"/><ellipse cx="523.69" cy="464.51" rx="358.7" ry="298.5" transform="translate(-73.26 830.11) rotate(-73.06)" fill="#393900"/><ellipse cx="523.69" cy="464.51" rx="357.5" ry="297.5" transform="translate(-73.26 830.11) rotate(-73.06)" fill="#383800"/><ellipse cx="523.69" cy="464.51" rx="356.31" ry="296.5" transform="translate(-73.26 830.11) rotate(-73.06)" fill="#363600"/><ellipse cx="523.69" cy="464.51" rx="355.11" ry="295.51" transform="matrix(0.29, -0.96, 0.96, 0.29, -73.26, 830.11)" fill="#353500"/><ellipse cx="523.69" cy="464.51" rx="353.91" ry="294.51" transform="translate(-73.26 830.11) rotate(-73.06)" fill="#330"/><ellipse cx="523.69" cy="464.51" rx="352.71" ry="293.51" transform="translate(-73.26 830.11) rotate(-73.06)" fill="#323200"/><ellipse cx="523.69" cy="464.51" rx="351.51" ry="292.51" transform="translate(-73.26 830.11) rotate(-73.06)" fill="#313100"/><ellipse cx="523.69" cy="464.51" rx="350.31" ry="291.52" transform="translate(-73.26 830.11) rotate(-73.06)" fill="#2f2f00"/><ellipse cx="523.69" cy="464.51" rx="349.12" ry="290.52" transform="translate(-73.26 830.11) rotate(-73.06)" fill="#2e2e00"/><ellipse cx="523.69" cy="464.51" rx="347.92" ry="289.52" transform="translate(-73.26 830.11) rotate(-73.06)" fill="#2d2d00"/><ellipse cx="523.69" cy="464.51" rx="346.72" ry="288.53" transform="translate(-73.26 830.11) rotate(-73.06)" fill="#2b2b00"/><ellipse cx="523.69" cy="464.51" rx="345.52" ry="287.53" transform="translate(-73.26 830.11) rotate(-73.06)" fill="#2a2a00"/><ellipse cx="523.69" cy="464.51" rx="344.32" ry="286.53" transform="translate(-73.26 830.11) rotate(-73.06)" fill="#292900"/><ellipse cx="523.69" cy="464.51" rx="343.13" ry="285.54" transform="translate(-73.26 830.11) rotate(-73.06)" fill="#282800"/><ellipse cx="523.69" cy="464.51" rx="341.93" ry="284.54" transform="translate(-73.26 830.11) rotate(-73.06)" fill="#272700"/><ellipse cx="523.69" cy="464.51" rx="340.73" ry="283.54" transform="translate(-73.26 830.11) rotate(-73.06)" fill="#262600"/><ellipse cx="523.69" cy="464.51" rx="339.53" ry="282.54" transform="translate(-73.26 830.11) rotate(-73.06)" fill="#252500"/><ellipse cx="523.69" cy="464.51" rx="338.33" ry="281.55" transform="translate(-73.26 830.11) rotate(-73.06)" fill="#242400"/><ellipse cx="523.69" cy="464.51" rx="337.14" ry="280.55" transform="translate(-73.26 830.11) rotate(-73.06)" fill="#232300"/><ellipse cx="523.69" cy="464.51" rx="335.94" ry="279.55" transform="translate(-73.26 830.11) rotate(-73.06)" fill="#220"/><ellipse cx="523.69" cy="464.51" rx="334.74" ry="278.55" transform="matrix(0.29, -0.96, 0.96, 0.29, -73.26, 830.11)" fill="#212100"/><ellipse cx="523.69" cy="464.51" rx="333.54" ry="277.56" transform="translate(-73.26 830.11) rotate(-73.06)" fill="#202000"/><ellipse cx="523.69" cy="464.51" rx="332.34" ry="276.56" transform="matrix(0.29, -0.96, 0.96, 0.29, -73.26, 830.11)" fill="#1f1f00"/><ellipse cx="523.69" cy="464.51" rx="331.14" ry="275.56" transform="translate(-73.26 830.11) rotate(-73.06)" fill="#1e1e00"/><ellipse cx="523.69" cy="464.51" rx="329.95" ry="274.57" transform="matrix(0.29, -0.96, 0.96, 0.29, -73.26, 830.11)" fill="#1d1d00"/><ellipse cx="523.69" cy="464.51" rx="328.75" ry="273.57" transform="translate(-73.26 830.11) rotate(-73.06)" fill="#1c1c00"/><ellipse cx="523.69" cy="464.51" rx="327.55" ry="272.57" transform="translate(-73.26 830.11) rotate(-73.06)" fill="#1b1b00"/><ellipse cx="523.69" cy="464.51" rx="326.35" ry="271.58" transform="matrix(0.29, -0.96, 0.96, 0.29, -73.26, 830.11)" fill="#1a1a00"/><ellipse cx="523.69" cy="464.51" rx="325.15" ry="270.58" transform="translate(-73.26 830.11) rotate(-73.06)" fill="#1a1a00"/><ellipse cx="523.69" cy="464.51" rx="323.95" ry="269.58" transform="matrix(0.29, -0.96, 0.96, 0.29, -73.26, 830.11)" fill="#191900"/><ellipse cx="523.69" cy="464.51" rx="322.76" ry="268.58" transform="translate(-73.26 830.11) rotate(-73.06)" fill="#181800"/><ellipse cx="523.69" cy="464.51" rx="321.56" ry="267.59" transform="translate(-73.26 830.1) rotate(-73.06)" fill="#171700"/><ellipse cx="523.69" cy="464.51" rx="320.36" ry="266.59" transform="translate(-73.26 830.11) rotate(-73.06)" fill="#171700"/><ellipse cx="523.69" cy="464.51" rx="319.16" ry="265.59" transform="translate(-73.26 830.11) rotate(-73.06)" fill="#161600"/><ellipse cx="523.69" cy="464.51" rx="317.96" ry="264.6" transform="translate(-73.26 830.11) rotate(-73.06)" fill="#151500"/><ellipse cx="523.69" cy="464.51" rx="316.77" ry="263.6" transform="translate(-73.26 830.1) rotate(-73.06)" fill="#141400"/><ellipse cx="523.69" cy="464.51" rx="315.57" ry="262.6" transform="translate(-73.26 830.11) rotate(-73.06)" fill="#141400"/><ellipse cx="523.69" cy="464.51" rx="314.37" ry="261.61" transform="matrix(0.29, -0.96, 0.96, 0.29, -73.26, 830.11)" fill="#131300"/><ellipse cx="523.69" cy="464.51" rx="313.17" ry="260.61" transform="translate(-73.26 830.11) rotate(-73.06)" fill="#131300"/><ellipse cx="523.69" cy="464.51" rx="311.97" ry="259.61" transform="translate(-73.26 830.11) rotate(-73.06)" fill="#121200"/><ellipse cx="523.69" cy="464.51" rx="310.78" ry="258.61" transform="translate(-73.26 830.11) rotate(-73.06)" fill="#110"/><ellipse cx="523.69" cy="464.51" rx="309.58" ry="257.62" transform="translate(-73.26 830.11) rotate(-73.06)" fill="#110"/><ellipse cx="523.69" cy="464.51" rx="308.38" ry="256.62" transform="translate(-73.26 830.11) rotate(-73.06)" fill="#101000"/><ellipse cx="523.69" cy="464.51" rx="307.18" ry="255.62" transform="translate(-73.26 830.11) rotate(-73.06)" fill="#101000"/><ellipse cx="523.69" cy="464.51" rx="305.98" ry="254.63" transform="translate(-73.26 830.11) rotate(-73.06)" fill="#0f0f00"/><ellipse cx="523.69" cy="464.51" rx="304.78" ry="253.63" transform="translate(-73.26 830.11) rotate(-73.06)" fill="#0f0f00"/><ellipse cx="523.69" cy="464.51" rx="303.59" ry="252.63" transform="matrix(0.29, -0.96, 0.96, 0.29, -73.26, 830.11)" fill="#0e0e00"/><ellipse cx="523.69" cy="464.51" rx="302.39" ry="251.63" transform="matrix(0.29, -0.96, 0.96, 0.29, -73.26, 830.1)" fill="#0e0e00"/><ellipse cx="523.69" cy="464.51" rx="301.19" ry="250.64" transform="translate(-73.26 830.11) rotate(-73.06)" fill="#0d0d00"/><ellipse cx="523.69" cy="464.51" rx="299.99" ry="249.64" transform="translate(-73.26 830.11) rotate(-73.06)" fill="#0d0d00"/><ellipse cx="523.69" cy="464.51" rx="298.79" ry="248.64" transform="matrix(0.29, -0.96, 0.96, 0.29, -73.26, 830.11)" fill="#0c0c00"/><ellipse cx="523.69" cy="464.51" rx="297.6" ry="247.65" transform="translate(-73.26 830.1) rotate(-73.06)" fill="#0c0c00"/><ellipse cx="523.69" cy="464.51" rx="296.4" ry="246.65" transform="translate(-73.26 830.11) rotate(-73.06)" fill="#0b0b00"/><ellipse cx="523.69" cy="464.51" rx="295.2" ry="245.65" transform="translate(-73.26 830.11) rotate(-73.06)" fill="#0b0b00"/><ellipse cx="523.69" cy="464.51" rx="294" ry="244.65" transform="translate(-73.26 830.11) rotate(-73.06)" fill="#0b0b00"/><ellipse cx="523.69" cy="464.51" rx="292.8" ry="243.66" transform="translate(-73.26 830.11) rotate(-73.06)" fill="#0a0a00"/><ellipse cx="523.69" cy="464.51" rx="291.6" ry="242.66" transform="translate(-73.26 830.11) rotate(-73.06)" fill="#0a0a00"/><ellipse cx="523.69" cy="464.51" rx="290.41" ry="241.66" transform="translate(-73.26 830.11) rotate(-73.06)" fill="#090900"/><ellipse cx="523.69" cy="464.51" rx="289.21" ry="240.67" transform="translate(-73.26 830.11) rotate(-73.06)" fill="#090900"/><ellipse cx="523.69" cy="464.51" rx="288.01" ry="239.67" transform="translate(-73.26 830.11) rotate(-73.06)" fill="#090900"/><ellipse cx="523.69" cy="464.51" rx="286.81" ry="238.67" transform="translate(-73.26 830.11) rotate(-73.06)" fill="#080800"/><ellipse cx="523.69" cy="464.51" rx="285.61" ry="237.68" transform="translate(-73.26 830.11) rotate(-73.06)" fill="#080800"/><ellipse cx="523.69" cy="464.51" rx="284.42" ry="236.68" transform="translate(-73.26 830.11) rotate(-73.06)" fill="#080800"/><ellipse cx="523.69" cy="464.51" rx="283.22" ry="235.68" transform="matrix(0.29, -0.96, 0.96, 0.29, -73.26, 830.11)" fill="#070700"/><ellipse cx="523.69" cy="464.51" rx="282.02" ry="234.68" transform="translate(-73.26 830.11) rotate(-73.06)" fill="#070700"/><ellipse cx="523.69" cy="464.51" rx="280.82" ry="233.69" transform="translate(-73.26 830.11) rotate(-73.06)" fill="#070700"/><ellipse cx="523.69" cy="464.51" rx="279.62" ry="232.69" transform="translate(-73.26 830.11) rotate(-73.06)" fill="#070700"/><ellipse cx="523.69" cy="464.51" rx="278.43" ry="231.69" transform="translate(-73.26 830.11) rotate(-73.06)" fill="#060600"/><ellipse cx="523.69" cy="464.51" rx="277.23" ry="230.7" transform="translate(-73.26 830.11) rotate(-73.06)" fill="#060600"/><ellipse cx="523.69" cy="464.51" rx="276.03" ry="229.7" transform="translate(-73.26 830.11) rotate(-73.06)" fill="#060600"/><ellipse cx="523.69" cy="464.51" rx="274.83" ry="228.7" transform="translate(-73.26 830.11) rotate(-73.06)" fill="#060600"/><ellipse cx="523.69" cy="464.51" rx="273.63" ry="227.7" transform="translate(-73.26 830.11) rotate(-73.06)" fill="#050500"/><ellipse cx="523.69" cy="464.51" rx="272.43" ry="226.71" transform="translate(-73.26 830.11) rotate(-73.06)" fill="#050500"/><ellipse cx="523.69" cy="464.51" rx="271.24" ry="225.71" transform="translate(-73.26 830.11) rotate(-73.06)" fill="#050500"/><ellipse cx="523.69" cy="464.51" rx="270.04" ry="224.71" transform="translate(-73.26 830.11) rotate(-73.06)" fill="#050500"/><ellipse cx="523.69" cy="464.51" rx="268.84" ry="223.72" transform="translate(-73.26 830.11) rotate(-73.06)" fill="#050500"/><ellipse cx="523.69" cy="464.51" rx="267.64" ry="222.72" transform="translate(-73.26 830.1) rotate(-73.06)" fill="#040400"/><ellipse cx="523.69" cy="464.51" rx="266.44" ry="221.72" transform="matrix(0.29, -0.96, 0.96, 0.29, -73.26, 830.11)" fill="#040400"/><ellipse cx="523.69" cy="464.51" rx="265.24" ry="220.73" transform="matrix(0.29, -0.96, 0.96, 0.29, -73.26, 830.11)" fill="#040400"/><ellipse cx="523.69" cy="464.51" rx="264.05" ry="219.73" transform="translate(-73.26 830.11) rotate(-73.06)" fill="#040400"/><ellipse cx="523.69" cy="464.51" rx="262.85" ry="218.73" transform="translate(-73.26 830.11) rotate(-73.06)" fill="#040400"/><ellipse cx="523.69" cy="464.51" rx="261.65" ry="217.73" transform="translate(-73.27 830.1) rotate(-73.06)" fill="#030300"/><ellipse cx="523.69" cy="464.51" rx="260.45" ry="216.74" transform="matrix(0.29, -0.96, 0.96, 0.29, -73.26, 830.1)" fill="#030300"/><ellipse cx="523.69" cy="464.51" rx="259.25" ry="215.74" transform="translate(-73.26 830.11) rotate(-73.06)" fill="#030300"/><ellipse cx="523.69" cy="464.51" rx="258.06" ry="214.74" transform="translate(-73.26 830.11) rotate(-73.06)" fill="#030300"/><ellipse cx="523.69" cy="464.51" rx="256.86" ry="213.75" transform="translate(-73.26 830.11) rotate(-73.06)" fill="#030300"/><ellipse cx="523.69" cy="464.51" rx="255.66" ry="212.75" transform="translate(-73.26 830.11) rotate(-73.06)" fill="#030300"/><ellipse cx="523.69" cy="464.51" rx="254.46" ry="211.75" transform="translate(-73.26 830.1) rotate(-73.06)" fill="#030300"/><ellipse cx="523.69" cy="464.51" rx="253.26" ry="210.76" transform="translate(-73.26 830.11) rotate(-73.06)" fill="#020200"/><ellipse cx="523.69" cy="464.51" rx="252.07" ry="209.76" transform="matrix(0.29, -0.96, 0.96, 0.29, -73.26, 830.11)" fill="#020200"/><ellipse cx="523.69" cy="464.51" rx="250.87" ry="208.76" transform="translate(-73.26 830.11) rotate(-73.06)" fill="#020200"/><ellipse cx="523.69" cy="464.51" rx="249.67" ry="207.76" transform="translate(-73.26 830.11) rotate(-73.06)" fill="#020200"/><ellipse cx="523.69" cy="464.51" rx="248.47" ry="206.77" transform="matrix(0.29, -0.96, 0.96, 0.29, -73.26, 830.11)" fill="#020200"/><ellipse cx="523.69" cy="464.51" rx="247.27" ry="205.77" transform="translate(-73.26 830.11) rotate(-73.06)" fill="#020200"/><ellipse cx="523.69" cy="464.51" rx="246.07" ry="204.77" transform="translate(-73.26 830.11) rotate(-73.06)" fill="#020200"/><ellipse cx="523.69" cy="464.51" rx="244.88" ry="203.78" transform="translate(-73.26 830.11) rotate(-73.06)" fill="#020200"/><ellipse cx="523.69" cy="464.51" rx="243.68" ry="202.78" transform="translate(-73.26 830.11) rotate(-73.06)" fill="#020200"/><ellipse cx="523.69" cy="464.51" rx="242.48" ry="201.78" transform="translate(-73.26 830.1) rotate(-73.06)" fill="#020200"/><ellipse cx="523.69" cy="464.51" rx="241.28" ry="200.78" transform="translate(-73.26 830.11) rotate(-73.06)" fill="#010100"/><ellipse cx="523.69" cy="464.51" rx="240.08" ry="199.79" transform="translate(-73.26 830.1) rotate(-73.06)" fill="#010100"/><ellipse cx="523.69" cy="464.51" rx="238.89" ry="198.79" transform="translate(-73.26 830.11) rotate(-73.06)" fill="#010100"/><ellipse cx="523.69" cy="464.51" rx="237.69" ry="197.79" transform="translate(-73.26 830.11) rotate(-73.06)" fill="#010100"/><ellipse cx="523.69" cy="464.51" rx="236.49" ry="196.8" transform="translate(-73.26 830.11) rotate(-73.06)" fill="#010100"/><ellipse cx="523.69" cy="464.51" rx="235.29" ry="195.8" transform="translate(-73.26 830.11) rotate(-73.06)" fill="#010100"/><ellipse cx="523.69" cy="464.51" rx="234.09" ry="194.8" transform="matrix(0.29, -0.96, 0.96, 0.29, -73.26, 830.11)" fill="#010100"/><ellipse cx="523.69" cy="464.51" rx="232.89" ry="193.81" transform="translate(-73.26 830.11) rotate(-73.06)" fill="#010100"/><ellipse cx="523.69" cy="464.51" rx="231.7" ry="192.81" transform="translate(-73.26 830.11) rotate(-73.06)" fill="#010100"/><ellipse cx="523.69" cy="464.51" rx="230.5" ry="191.81" transform="translate(-73.26 830.11) rotate(-73.06)" fill="#010100"/><ellipse cx="523.69" cy="464.51" rx="229.3" ry="190.81" transform="translate(-73.26 830.11) rotate(-73.06)" fill="#010100"/><ellipse cx="523.69" cy="464.51" rx="228.1" ry="189.82" transform="translate(-73.26 830.11) rotate(-73.06)" fill="#010100"/><ellipse cx="523.69" cy="464.51" rx="226.9" ry="188.82" transform="translate(-73.26 830.11) rotate(-73.06)" fill="#010100"/><ellipse cx="523.69" cy="464.51" rx="225.71" ry="187.82" transform="translate(-73.26 830.1) rotate(-73.06)" fill="#010100"/><ellipse cx="523.69" cy="464.51" rx="224.51" ry="186.83" transform="matrix(0.29, -0.96, 0.96, 0.29, -73.26, 830.11)" fill="#010100"/><ellipse cx="523.69" cy="464.51" rx="223.31" ry="185.83" transform="translate(-73.26 830.11) rotate(-73.06)" fill="#010100"/><ellipse cx="523.69" cy="464.51" rx="222.11" ry="184.83" transform="translate(-73.26 830.11) rotate(-73.06)" fill="#010100"/><ellipse cx="523.69" cy="464.51" rx="220.91" ry="183.83" transform="translate(-73.26 830.1) rotate(-73.06)" fill="#010100"/><ellipse cx="523.69" cy="464.51" rx="219.71" ry="182.84" transform="matrix(0.29, -0.96, 0.96, 0.29, -73.26, 830.11)"/><ellipse cx="523.69" cy="464.51" rx="218.52" ry="181.84" transform="translate(-73.26 830.11) rotate(-73.06)"/><ellipse cx="523.69" cy="464.51" rx="217.32" ry="180.84" transform="translate(-73.26 830.11) rotate(-73.06)"/><ellipse cx="523.69" cy="464.51" rx="216.12" ry="179.85" transform="translate(-73.26 830.11) rotate(-73.06)"/><ellipse cx="523.69" cy="464.51" rx="214.92" ry="178.85" transform="translate(-73.26 830.11) rotate(-73.06)"/><ellipse cx="523.69" cy="464.51" rx="213.72" ry="177.85" transform="translate(-73.26 830.1) rotate(-73.06)"/><ellipse cx="523.69" cy="464.51" rx="212.53" ry="176.85" transform="matrix(0.29, -0.96, 0.96, 0.29, -73.26, 830.11)"/><ellipse cx="523.69" cy="464.51" rx="211.33" ry="175.86" transform="translate(-73.26 830.11) rotate(-73.06)"/><ellipse cx="523.69" cy="464.51" rx="210.13" ry="174.86" transform="translate(-73.26 830.11) rotate(-73.06)"/><ellipse cx="523.69" cy="464.51" rx="208.93" ry="173.86" transform="translate(-73.26 830.11) rotate(-73.06)"/><ellipse cx="523.69" cy="464.51" rx="207.73" ry="172.87" transform="translate(-73.26 830.11) rotate(-73.06)"/><ellipse cx="523.69" cy="464.51" rx="206.53" ry="171.87" transform="translate(-73.26 830.1) rotate(-73.06)"/><ellipse cx="523.69" cy="464.51" rx="205.34" ry="170.87" transform="translate(-73.26 830.11) rotate(-73.06)"/><ellipse cx="523.69" cy="464.51" rx="204.14" ry="169.88" transform="translate(-73.26 830.11) rotate(-73.06)"/><ellipse cx="523.69" cy="464.51" rx="202.94" ry="168.88" transform="translate(-73.26 830.11) rotate(-73.06)"/><ellipse cx="523.69" cy="464.51" rx="201.74" ry="167.88" transform="translate(-73.26 830.11) rotate(-73.06)"/><ellipse cx="523.69" cy="464.51" rx="200.54" ry="166.88" transform="translate(-73.26 830.11) rotate(-73.06)"/><ellipse cx="523.69" cy="464.51" rx="199.35" ry="165.89" transform="translate(-73.26 830.11) rotate(-73.06)"/><ellipse cx="523.69" cy="464.51" rx="198.15" ry="164.89" transform="translate(-73.26 830.11) rotate(-73.06)"/><ellipse cx="523.69" cy="464.51" rx="196.95" ry="163.89" transform="translate(-73.26 830.11) rotate(-73.06)"/><ellipse cx="523.69" cy="464.51" rx="195.75" ry="162.9" transform="translate(-73.26 830.11) rotate(-73.06)"/><ellipse cx="523.69" cy="464.51" rx="194.55" ry="161.9" transform="translate(-73.26 830.11) rotate(-73.06)"/><ellipse cx="523.69" cy="464.51" rx="193.36" ry="160.9" transform="translate(-73.26 830.11) rotate(-73.06)"/><ellipse cx="523.69" cy="464.51" rx="192.16" ry="159.9" transform="translate(-73.26 830.11) rotate(-73.06)"/><ellipse cx="523.69" cy="464.51" rx="190.96" ry="158.91" transform="translate(-73.26 830.11) rotate(-73.06)"/><ellipse cx="523.69" cy="464.51" rx="189.76" ry="157.91" transform="translate(-73.26 830.11) rotate(-73.06)"/><ellipse cx="523.69" cy="464.51" rx="188.56" ry="156.91" transform="translate(-73.26 830.11) rotate(-73.06)"/><ellipse cx="523.69" cy="464.51" rx="187.36" ry="155.92" transform="translate(-73.26 830.11) rotate(-73.06)"/><ellipse cx="523.69" cy="464.51" rx="186.17" ry="154.92" transform="translate(-73.26 830.11) rotate(-73.06)"/><ellipse cx="523.69" cy="464.51" rx="184.97" ry="153.92" transform="translate(-73.26 830.11) rotate(-73.06)"/><ellipse cx="523.69" cy="464.51" rx="183.77" ry="152.93" transform="translate(-73.26 830.11) rotate(-73.06)"/><ellipse cx="523.69" cy="464.51" rx="182.57" ry="151.93" transform="translate(-73.26 830.1) rotate(-73.06)"/><ellipse cx="523.69" cy="464.51" rx="181.37" ry="150.93" transform="translate(-73.27 830.1) rotate(-73.06)"/><ellipse cx="523.69" cy="464.51" rx="180.18" ry="149.93" transform="translate(-73.26 830.11) rotate(-73.06)"/><ellipse cx="523.69" cy="464.51" rx="178.98" ry="148.94" transform="translate(-73.26 830.11) rotate(-73.06)"/><ellipse cx="523.69" cy="464.51" rx="177.78" ry="147.94" transform="translate(-73.26 830.11) rotate(-73.06)"/><ellipse cx="523.69" cy="464.51" rx="176.58" ry="146.94" transform="translate(-73.26 830.11) rotate(-73.06)"/><ellipse cx="523.69" cy="464.51" rx="175.38" ry="145.95" transform="translate(-73.26 830.11) rotate(-73.06)"/><ellipse cx="523.69" cy="464.51" rx="174.18" ry="144.95" transform="translate(-73.26 830.11) rotate(-73.06)"/><ellipse cx="523.69" cy="464.51" rx="172.99" ry="143.95" transform="translate(-73.26 830.11) rotate(-73.06)"/><ellipse cx="523.69" cy="464.51" rx="171.79" ry="142.95" transform="translate(-73.26 830.11) rotate(-73.06)"/><ellipse cx="523.69" cy="464.51" rx="170.59" ry="141.96" transform="translate(-73.26 830.11) rotate(-73.06)"/><ellipse cx="523.69" cy="464.51" rx="169.39" ry="140.96" transform="translate(-73.26 830.1) rotate(-73.06)"/><ellipse cx="523.69" cy="464.51" rx="168.19" ry="139.96" transform="translate(-73.26 830.11) rotate(-73.06)"/><ellipse cx="523.69" cy="464.51" rx="167" ry="138.97" transform="translate(-73.26 830.1) rotate(-73.06)"/><ellipse cx="523.69" cy="464.51" rx="165.8" ry="137.97" transform="translate(-73.26 830.1) rotate(-73.06)"/><ellipse cx="523.69" cy="464.51" rx="164.6" ry="136.97" transform="translate(-73.26 830.11) rotate(-73.06)"/><ellipse cx="523.69" cy="464.51" rx="163.4" ry="135.98" transform="translate(-73.26 830.11) rotate(-73.06)"/><path d="M571,309.34c-71.31-21.72-150.28,30.14-176.38,115.83S405.11,598,476.42,619.67,626.7,589.53,652.81,503.84,642.27,331.07,571,309.34Z"/><ellipse cx="523.69" cy="464.51" rx="161" ry="133.98" transform="translate(-73.26 830.11) rotate(-73.06)"/><ellipse cx="523.69" cy="464.51" rx="159.81" ry="132.98" transform="translate(-73.26 830.11) rotate(-73.06)"/><path d="M569.91,312.78C500.18,291.54,423,342.25,397.43,426s10.31,169,80,190.19S624.42,586.76,650,503,639.64,334,569.91,312.78Z"/><ellipse cx="523.69" cy="464.51" rx="157.41" ry="130.99" transform="translate(-73.26 830.11) rotate(-73.06)"/><ellipse cx="523.69" cy="464.51" rx="156.21" ry="129.99" transform="translate(-73.26 830.11) rotate(-73.06)"/><ellipse cx="523.69" cy="464.51" rx="155.01" ry="129" transform="translate(-73.26 830.11) rotate(-73.06)"/><ellipse cx="523.69" cy="464.51" rx="153.82" ry="128" transform="translate(-73.26 830.1) rotate(-73.06)"/><path d="M568.16,318.51c-67.1-20.44-141.4,28.36-166,109s9.92,162.56,77,183,141.41-28.36,166-109S635.26,339,568.16,318.51Z"/><ellipse cx="523.69" cy="464.51" rx="151.42" ry="126" transform="translate(-73.26 830.11) rotate(-73.06)"/><path d="M567.46,320.8c-66-20.11-139.18,27.91-163.35,107.28s9.76,160,75.8,180.13S619.09,580.3,643.27,500.93,633.51,340.92,567.46,320.8Z"/><ellipse cx="523.69" cy="464.51" rx="149.02" ry="124.01" transform="translate(-73.26 830.11) rotate(-73.06)"/><ellipse cx="523.69" cy="464.51" rx="147.83" ry="123.01" transform="translate(-73.26 830.11) rotate(-73.06)"/><ellipse cx="523.69" cy="464.51" rx="146.63" ry="122.02" transform="translate(-73.27 830.1) rotate(-73.06)"/><path d="M566.07,325.39c-63.94-19.48-134.74,27-158.15,103.85s9.45,154.91,73.39,174.38,134.74-27,158.15-103.85S630,344.86,566.07,325.39Z"/><ellipse cx="523.69" cy="464.51" rx="144.23" ry="120.02" transform="translate(-73.26 830.11) rotate(-73.06)"/><ellipse cx="523.69" cy="464.51" rx="143.03" ry="119.03" transform="matrix(0.29, -0.96, 0.96, 0.29, -73.26, 830.11)"/><ellipse cx="523.69" cy="464.51" rx="141.83" ry="118.03" transform="translate(-73.27 830.1) rotate(-73.06)"/><ellipse cx="523.69" cy="464.51" rx="140.64" ry="117.03" transform="translate(-73.26 830.11) rotate(-73.06)"/><path d="M564.32,331.12C503,312.45,435.13,357,412.69,430.69s9.06,148.53,70.37,167.2S612.25,572,634.69,498.32,625.62,349.79,564.32,331.12Z"/><ellipse cx="523.69" cy="464.51" rx="138.24" ry="115.04" transform="translate(-73.26 830.11) rotate(-73.06)"/><ellipse cx="523.69" cy="464.51" rx="137.04" ry="114.04" transform="translate(-73.26 830.11) rotate(-73.06)"/><ellipse cx="523.69" cy="464.51" rx="135.84" ry="113.04" transform="translate(-73.26 830.11) rotate(-73.06)"/><ellipse cx="523.69" cy="464.51" rx="134.65" ry="112.05" transform="translate(-73.26 830.1) rotate(-73.06)"/><ellipse cx="523.69" cy="464.51" rx="133.45" ry="111.05" transform="translate(-73.26 830.1) rotate(-73.06)"/></g></g><path d="M571.73,884.58l-80.84,178.29s-114.13,11.69-263.44-92.44l27.89-202.31S372.08,853.62,571.73,884.58Z" fill-rule="evenodd" fill="url(#Áåçûìÿííûé_ãðàäèåíò_44)"/><path d="M550,931.9s11.87,23,11.78,42l-32.6,4.54s-198-53.77-281.87-162.65c0,0-12.13-22.7-16.06-55.89l24.48-4,1.82,18.78S383.84,917.93,550,931.9Z" fill-rule="evenodd" fill="url(#Áåçûìÿííûé_ãðàäèåíò_53)"/><path d="M561.77,973.9s-242-50.58-330.53-214c0,0-.79,36.27,16.06,55.89,0,0,60.94,95.81,281.87,162.65Z" fill-rule="evenodd" opacity="0.5" fill="url(#Áåçûìÿííûé_ãðàäèåíò_319)" style="mix-blend-mode:multiply"/><path d="M509,1023l8.31,21.14-22.41,10S325.62,1018,234.59,918.64L217,880.46l22.79.43S329,979.89,509,1023Z" fill-rule="evenodd" fill="url(#Áåçûìÿííûé_ãðàäèåíò_53-2)"/><path d="M517.27,1044.15S335.14,1011,217,880.46l17.59,38.18s74.17,92,260.27,135.49Z" fill-rule="evenodd" opacity="0.5" fill="url(#Áåçûìÿííûé_ãðàäèåíò_319-2)" style="mix-blend-mode:multiply"/><path d="M427.24,1017.46s-44.09-28-71.22-31.92C356,985.54,384.37,1008.8,427.24,1017.46Z" fill="#e2e0ff" fill-rule="evenodd"/><path d="M454.07,938.86s-30.15-23.65-56.13-26.45C397.94,912.41,422.45,934.06,454.07,938.86Z" fill="#e2e0ff" fill-rule="evenodd"/><ellipse cx="753.9" cy="583.2" rx="143.92" ry="113.26" transform="translate(-72.07 1058.88) rotate(-67.66)" fill="url(#Áåçûìÿííûé_ãðàäèåíò_73)"/><path d="M701,695.94c50,20.53,113.09-17.56,140.79-85.14,11.35-27.69,15-56,12-81.15-4.33-36.35-22.73-66.15-52.22-78.29-38.58-15.81-84.8,3.12-116.67,43.6l-.07,0a173.49,173.49,0,0,0-24.1,41.48C632.86,604,650.9,675.38,701,695.94Z" fill-rule="evenodd" fill="url(#Áåçûìÿííûé_ãðàäèåíò_79)"/><g clip-path="url(#clip-path-2)"><rect x="694.21" y="515.53" width="156.71" height="172.55" transform="translate(-66.77 97.28) rotate(-6.91)" fill="#a45700"/><path d="M700.37,584.89c-22.66,37.42-15.16,83.43,16.75,102.75s76.15,4.64,98.81-32.79,15.17-83.43-16.74-102.75S723,547.46,700.37,584.89Z" fill="#a45700"/><path d="M701,585.27c-22.41,37-15,82.52,16.56,101.63s75.32,4.59,97.74-32.43,15-82.52-16.56-101.63S723.42,548.25,701,585.27Z" fill="#a65900"/><path d="M701.64,585.65C679.47,622.26,686.8,667.26,718,686.16s74.49,4.54,96.66-32.07,14.83-81.61-16.38-100.51S723.8,549,701.64,585.65Z" fill="#a95b00"/><ellipse cx="758.15" cy="619.87" rx="76.63" ry="65.33" transform="translate(-164.78 947.33) rotate(-58.8)" fill="#ab5e00"/><path d="M702.9,586.41c-21.67,35.8-14.5,79.79,16,98.27s72.82,4.44,94.49-31.35,14.51-79.79-16-98.27S724.57,550.62,702.9,586.41Z" fill="#ae6000"/><path d="M703.53,586.8c-21.42,35.38-14.34,78.87,15.83,97.14s72,4.39,93.41-31,14.34-78.87-15.83-97.14S725,551.41,703.53,586.8Z" fill="#b06200"/><path d="M704.16,587.18c-21.18,35-14.17,78,15.65,96s71.15,4.34,92.33-30.64,14.17-78-15.64-96S725.34,552.2,704.16,587.18Z" fill="#b26400"/><path d="M704.79,587.56c-20.93,34.57-14,77.05,15.47,94.9s70.32,4.28,91.25-30.28,14-77-15.46-94.9S725.72,553,704.79,587.56Z" fill="#b56600"/><path d="M705.42,587.94c-20.68,34.16-13.84,76.15,15.28,93.78s69.5,4.23,90.18-29.92S824.72,575.65,795.6,558,726.11,553.79,705.42,587.94Z" fill="#b76800"/><path d="M706.06,588.33c-20.44,33.74-13.68,75.22,15.09,92.65s68.66,4.18,89.1-29.57,13.67-75.22-15.1-92.65S726.49,554.58,706.06,588.33Z" fill="#b96a00"/><path d="M706.69,588.71C686.5,622.05,693.18,663,721.6,680.24s67.83,4.13,88-29.21,13.51-74.32-14.92-91.53S726.87,555.37,706.69,588.71Z" fill="#bb6c00"/><ellipse cx="758.15" cy="619.87" rx="69.7" ry="59.43" transform="matrix(0.52, -0.86, 0.86, 0.52, -164.77, 947.35)" fill="#bd6e00"/><path d="M708,589.47C688.26,622,694.77,662,722.5,678.75s66.16,4,85.85-28.48,13.18-72.5-14.54-89.28S727.64,557,708,589.47Z" fill="#bf7000"/><ellipse cx="758.15" cy="619.87" rx="67.97" ry="57.95" transform="translate(-164.77 947.35) rotate(-58.81)" fill="#c17200"/><ellipse cx="758.15" cy="619.87" rx="67.11" ry="57.21" transform="translate(-164.77 947.36) rotate(-58.81)" fill="#c37300"/><path d="M709.84,590.62c-18.94,31.29-12.68,69.76,14,85.91s63.67,3.88,82.62-27.41,12.68-69.76-14-85.91S728.79,559.33,709.84,590.62Z" fill="#c57500"/><path d="M710.48,591c-18.7,30.89-12.52,68.85,13.81,84.79s62.84,3.83,81.54-27S818.34,579.89,792,564,729.18,560.12,710.48,591Z" fill="#c77700"/><path d="M711.11,591.38c-18.46,30.48-12.35,67.94,13.63,83.67s62,3.78,80.46-26.7,12.35-67.93-13.64-83.66S729.56,560.91,711.11,591.38Z" fill="#c97900"/><path d="M711.74,591.77c-18.21,30.06-12.19,67,13.45,82.54S786.36,678,804.56,648s12.19-67-13.44-82.54S729.94,561.7,711.74,591.77Z" fill="#cb7a00"/><path d="M712.37,592.15c-18,29.66-12,66.11,13.27,81.42s60.34,3.68,78.29-26,12-66.11-13.26-81.42S730.33,562.49,712.37,592.15Z" fill="#cc7c00"/><ellipse cx="758.15" cy="619.87" rx="61.91" ry="52.78" transform="translate(-164.76 947.37) rotate(-58.81)" fill="#ce7d00"/><path d="M713.63,592.91c-17.46,28.84-11.68,64.29,12.9,79.18s58.68,3.58,76.14-25.26,11.69-64.29-12.9-79.18S731.09,564.07,713.63,592.91Z" fill="#d07f00"/><path d="M714.26,593.3c-17.21,28.43-11.52,63.37,12.72,78.05s57.85,3.52,75.06-24.91,11.52-63.37-12.72-78.05S731.48,564.87,714.26,593.3Z" fill="#d28100"/><path d="M714.9,593.68c-17,28-11.36,62.46,12.53,76.93s57,3.47,74-24.55,11.35-62.46-12.54-76.93S731.86,565.66,714.9,593.68Z" fill="#d38200"/><path d="M715.53,594.06c-16.72,27.61-11.19,61.55,12.35,75.81s56.18,3.42,72.9-24.19,11.19-61.55-12.36-75.81S732.25,566.45,715.53,594.06Z" fill="#d58400"/><path d="M716.16,594.44c-16.47,27.21-11,60.64,12.17,74.69s55.34,3.37,71.81-23.83,11-60.64-12.16-74.69S732.63,567.24,716.16,594.44Z" fill="#d68500"/><path d="M716.79,594.83c-16.22,26.79-10.86,59.72,12,73.56s54.51,3.32,70.73-23.48,10.86-59.72-12-73.56S733,568,716.79,594.83Z" fill="#d88600"/><path d="M717.42,595.21c-16,26.38-10.69,58.82,11.8,72.44s53.69,3.27,69.66-23.12,10.69-58.82-11.8-72.44S733.4,568.82,717.42,595.21Z" fill="#d98800"/><path d="M718.05,595.59c-15.73,26-10.52,57.91,11.62,71.31s52.85,3.23,68.58-22.75,10.53-57.91-11.62-71.32S733.78,569.61,718.05,595.59Z" fill="#db8900"/><path d="M718.68,596c-15.48,25.57-10.36,57,11.44,70.19s52,3.18,67.5-22.39,10.36-57-11.44-70.19S734.16,570.4,718.68,596Z" fill="#dc8a00"/><path d="M719.31,596.35c-15.23,25.16-10.19,56.09,11.26,69.07s51.19,3.12,66.42-22,10.19-56.09-11.26-69.07S734.55,571.2,719.31,596.35Z" fill="#de8c00"/><ellipse cx="758.15" cy="619.87" rx="52.39" ry="44.66" transform="translate(-164.78 947.34) rotate(-58.8)" fill="#df8d00"/><path d="M720.58,597.12c-14.74,24.34-9.87,54.26,10.89,66.82s49.52,3,64.26-21.32,9.86-54.26-10.89-66.82S735.32,572.78,720.58,597.12Z" fill="#e08e00"/><ellipse cx="758.15" cy="619.87" rx="50.66" ry="43.19" transform="matrix(0.52, -0.86, 0.86, 0.52, -164.77, 947.36)" fill="#e28f00"/><path d="M721.84,597.88c-14.24,23.53-9.53,52.44,10.52,64.58s47.86,2.92,62.1-20.6,9.53-52.44-10.52-64.58S736.08,574.36,721.84,597.88Z" fill="#e39000"/><path d="M722.47,598.27c-14,23.11-9.37,51.52,10.34,63.45s47,2.87,61-20.25S803.2,590,783.49,578,736.47,575.15,722.47,598.27Z" fill="#e49200"/><path d="M723.1,598.65c-13.74,22.7-9.2,50.61,10.16,62.33s46.19,2.82,59.94-19.89,9.2-50.61-10.16-62.33S736.85,575.94,723.1,598.65Z" fill="#e59300"/><path d="M723.73,599c-13.5,22.3-9,49.7,10,61.21s45.36,2.76,58.86-19.53,9-49.7-10-61.21S737.23,576.73,723.73,599Z" fill="#e79400"/><path d="M724.37,599.41c-13.26,21.89-8.87,48.79,9.79,60.09s44.53,2.71,57.78-19.17,8.87-48.79-9.79-60.09S737.62,577.53,724.37,599.41Z" fill="#e89500"/><path d="M725,599.8c-13,21.47-8.71,47.87,9.6,59s43.7,2.66,56.71-18.82,8.7-47.87-9.61-59S738,578.32,725,599.8Z" fill="#e99600"/><path d="M725.63,600.18c-12.76,21.07-8.54,47,9.42,57.84s42.87,2.61,55.62-18.46,8.54-47-9.42-57.84S738.38,579.11,725.63,600.18Z" fill="#ea9700"/><path d="M726.26,600.56c-12.51,20.66-8.37,46.05,9.24,56.72s42,2.56,54.54-18.1,8.37-46-9.24-56.72S738.77,579.9,726.26,600.56Z" fill="#eb9800"/><path d="M726.89,600.94c-12.26,20.25-8.2,45.14,9.06,55.6s41.2,2.51,53.46-17.74,8.21-45.14-9.06-55.6S739.15,580.69,726.89,600.94Z" fill="#ec9900"/><path d="M727.52,601.32c-12,19.85-8,44.23,8.88,54.48s40.37,2.46,52.38-17.38,8-44.23-8.88-54.48S739.54,581.48,727.52,601.32Z" fill="#ed9900"/><path d="M728.15,601.71c-11.76,19.43-7.87,43.31,8.7,53.35s39.53,2.41,51.3-17,7.87-43.31-8.69-53.35S739.92,582.27,728.15,601.71Z" fill="#ee9a00"/><path d="M728.79,602.09c-11.52,19-7.71,42.41,8.51,52.23s38.7,2.35,50.22-16.67,7.71-42.41-8.51-52.23S740.3,583.07,728.79,602.09Z" fill="#ef9b00"/><path d="M729.42,602.47c-11.27,18.62-7.55,41.5,8.32,51.1s37.88,2.31,49.15-16.3,7.54-41.5-8.33-51.11S740.69,583.86,729.42,602.47Z" fill="#f09c00"/><path d="M730.05,602.85c-11,18.21-7.38,40.59,8.14,50s37,2.26,48.06-15.94,7.38-40.59-8.14-50S741.07,584.65,730.05,602.85Z" fill="#f09d00"/><path d="M730.68,603.24c-10.78,17.79-7.21,39.67,8,48.85s36.21,2.21,47-15.59,7.21-39.67-8-48.85S741.46,585.44,730.68,603.24Z" fill="#f19d00"/><ellipse cx="758.15" cy="619.87" rx="36.8" ry="31.38" transform="translate(-164.78 947.34) rotate(-58.81)" fill="#f29e00"/><path d="M731.94,604c-10.28,17-6.88,37.85,7.6,46.61s34.54,2.11,44.82-14.87,6.88-37.85-7.59-46.61S742.22,587,731.94,604Z" fill="#f39f00"/><path d="M732.57,604.38c-10,16.57-6.71,36.94,7.42,45.49s33.71,2.06,43.74-14.51,6.71-36.94-7.41-45.49S742.61,587.81,732.57,604.38Z" fill="#f4a000"/><path d="M733.2,604.77c-9.78,16.16-6.54,36,7.23,44.36s32.88,2,42.67-14.16,6.55-36-7.23-44.36S743,588.6,733.2,604.77Z" fill="#f4a000"/><path d="M733.84,605.15c-9.54,15.75-6.39,35.11,7,43.24s32,2,41.59-13.8,6.38-35.11-7.05-43.24S743.37,589.4,733.84,605.15Z" fill="#f5a100"/><path d="M734.47,605.53c-9.29,15.34-6.22,34.2,6.86,42.12s31.22,1.9,40.51-13.44,6.21-34.2-6.87-42.12S743.76,590.19,734.47,605.53Z" fill="#f6a100"/><path d="M735.1,605.91c-9,14.94-6.05,33.29,6.68,41s30.38,1.85,39.42-13.08,6.06-33.29-6.68-41S744.14,591,735.1,605.91Z" fill="#f6a200"/><path d="M735.73,606.29c-8.79,14.53-5.88,32.38,6.5,39.88s29.55,1.8,38.34-12.72,5.89-32.38-6.49-39.88S744.52,591.77,735.73,606.29Z" fill="#f7a300"/><path d="M736.36,606.68c-8.55,14.11-5.72,31.46,6.32,38.75s28.71,1.75,37.26-12.37,5.72-31.46-6.31-38.75S744.91,592.56,736.36,606.68Z" fill="#f7a300"/><path d="M737,607.06c-8.3,13.71-5.55,30.55,6.13,37.63s27.89,1.7,36.19-12,5.55-30.55-6.13-37.63S745.29,593.35,737,607.06Z" fill="#f8a400"/><path d="M737.62,607.44c-8,13.3-5.38,29.64,6,36.51s27.06,1.65,35.11-11.65,5.39-29.64-5.95-36.51S745.68,594.14,737.62,607.44Z" fill="#f9a400"/><path d="M738.26,607.82c-7.81,12.89-5.23,28.73,5.76,35.39s26.22,1.59,34-11.29,5.22-28.73-5.77-35.39S746.06,594.94,738.26,607.82Z" fill="#f9a500"/><path d="M738.89,608.21c-7.56,12.47-5.06,27.81,5.58,34.26s25.39,1.54,32.95-10.94,5.05-27.81-5.59-34.26S746.44,595.73,738.89,608.21Z" fill="#faa500"/><path d="M739.52,608.59c-7.31,12.07-4.89,26.9,5.4,33.14s24.56,1.49,31.86-10.58,4.9-26.9-5.39-33.14S746.83,596.52,739.52,608.59Z" fill="#faa500"/><path d="M740.15,609c-7.06,11.66-4.73,26,5.22,32s23.72,1.45,30.78-10.21,4.73-26-5.21-32S747.21,597.31,740.15,609Z" fill="#faa600"/><path d="M740.78,609.35c-6.81,11.25-4.56,25.09,5,30.89s22.89,1.4,29.7-9.85,4.56-25.09-5-30.89S747.6,598.1,740.78,609.35Z" fill="#fba600"/><path d="M741.41,609.74c-6.56,10.84-4.39,24.17,4.85,29.76s22.06,1.35,28.63-9.5,4.39-24.17-4.85-29.76S748,598.89,741.41,609.74Z" fill="#fba700"/><path d="M742,610.12c-6.31,10.43-4.22,23.26,4.67,28.64s21.23,1.3,27.55-9.14,4.23-23.26-4.67-28.64S748.36,599.68,742,610.12Z" fill="#fca700"/><path d="M742.68,610.5c-6.07,10-4.07,22.35,4.48,27.52s20.4,1.25,26.47-8.78,4.06-22.35-4.49-27.52S748.75,600.47,742.68,610.5Z" fill="#fca700"/><path d="M743.31,610.88c-5.83,9.62-3.9,21.44,4.3,26.4s19.56,1.19,25.39-8.42,3.89-21.44-4.31-26.4S749.13,601.27,743.31,610.88Z" fill="#fca700"/><path d="M743.94,611.26c-5.58,9.21-3.73,20.53,4.12,25.28s18.73,1.14,24.3-8.06,3.74-20.53-4.11-25.28S749.51,602.06,743.94,611.26Z" fill="#fda800"/><path d="M744.57,611.65c-5.33,8.79-3.57,19.61,3.94,24.15s17.9,1.09,23.22-7.71,3.57-19.61-3.93-24.15S749.9,602.85,744.57,611.65Z" fill="#fda800"/><path d="M745.2,612c-5.08,8.39-3.4,18.7,3.75,23s17.07,1,22.15-7.35,3.4-18.7-3.75-23S750.28,603.64,745.2,612Z" fill="#fda800"/><path d="M745.83,612.41c-4.83,8-3.23,17.79,3.57,21.91s16.24,1,21.07-7,3.23-17.79-3.57-21.91S750.66,604.43,745.83,612.41Z" fill="#fda800"/><path d="M746.46,612.79c-4.58,7.57-3.06,16.88,3.39,20.79s15.4.94,20-6.63,3.07-16.88-3.39-20.79S751.05,605.22,746.46,612.79Z" fill="#fea900"/><path d="M747.1,613.18c-4.34,7.16-2.91,16,3.2,19.66s14.57.89,18.91-6.28,2.9-16-3.21-19.66S751.43,606,747.1,613.18Z" fill="#fea900"/><path d="M747.73,613.56c-4.09,6.75-2.74,15.05,3,18.54s13.74.84,17.83-5.92,2.73-15-3-18.54S751.82,606.8,747.73,613.56Z" fill="#fea900"/><path d="M748.36,613.94c-3.84,6.34-2.57,14.14,2.84,17.42s12.9.78,16.75-5.56,2.57-14.14-2.84-17.42S752.2,607.6,748.36,613.94Z" fill="#fea900"/><path d="M749,614.32c-3.59,5.94-2.41,13.23,2.65,16.3s12.08.73,15.67-5.2,2.41-13.23-2.65-16.3S752.58,608.39,749,614.32Z" fill="#fea900"/><path d="M749.62,614.7c-3.35,5.53-2.24,12.32,2.47,15.18s11.25.68,14.59-4.84,2.24-12.32-2.47-15.18S753,609.18,749.62,614.7Z" fill="#fea900"/><path d="M750.25,615.09c-3.1,5.11-2.07,11.4,2.29,14s10.41.63,13.51-4.49,2.07-11.4-2.29-14S753.35,610,750.25,615.09Z" fill="#fa0"/><path d="M750.88,615.47C748,620.18,749,626,753,628.4s9.58.58,12.43-4.13,1.91-10.49-2.11-12.93S753.73,610.76,750.88,615.47Z" fill="#fa0"/><path d="M751.51,615.85c-2.6,4.3-1.74,9.58,1.93,11.8s8.75.54,11.35-3.76,1.74-9.59-1.93-11.8S754.12,611.55,751.51,615.85Z" fill="#fa0"/><path d="M752.15,616.23c-2.36,3.89-1.58,8.68,1.74,10.68s7.91.49,10.27-3.4,1.57-8.68-1.74-10.68S754.5,612.34,752.15,616.23Z" fill="#fa0"/><path d="M752.78,616.62c-2.11,3.48-1.41,7.76,1.55,9.55s7.09.43,9.2-3,1.41-7.76-1.56-9.55S754.89,613.13,752.78,616.62Z" fill="#fa0"/><path d="M753.41,617c-1.86,3.07-1.25,6.85,1.37,8.43s6.25.38,8.11-2.69,1.25-6.85-1.37-8.43S755.27,613.93,753.41,617Z" fill="#fa0"/><path d="M754,617.38c-1.61,2.66-1.08,5.94,1.19,7.31s5.42.33,7-2.33,1.08-5.94-1.19-7.31S755.65,614.72,754,617.38Z" fill="#fa0"/><path d="M754.67,617.76c-1.36,2.26-.91,5,1,6.19s4.59.28,6-2,.91-5-1-6.19S756,615.51,754.67,617.76Z" fill="#fa0"/><path d="M755.3,618.15a3.37,3.37,0,1,0,4.87-1.62A3.66,3.66,0,0,0,755.3,618.15Z" fill="#fa0"/><path d="M755.93,618.53a2.63,2.63,0,1,0,3.8-1.26A2.85,2.85,0,0,0,755.93,618.53Z" fill="#fa0"/><path d="M756.57,618.91a1.88,1.88,0,1,0,2.71-.9A2,2,0,0,0,756.57,618.91Z" fill="#fa0"/><path d="M757.2,619.29a1.13,1.13,0,1,0,1.63-.54A1.23,1.23,0,0,0,757.2,619.29Z" fill="#fa0"/></g><path d="M736.05,593.75c-16.26,27.4-11.95,60,9.61,72.77s52.22.94,68.47-26.46,12-60-9.61-72.77S752.3,566.34,736.05,593.75Z" fill-rule="evenodd" fill="url(#Áåçûìÿííûé_ãðàäèåíò_91)"/><path d="M710.63,554.42c-4.2,10.22-1.08,21.18,7,24.49s18-2.3,22.17-12.52,1.08-21.18-7-24.49S714.83,544.2,710.63,554.42Z" fill="#fff" fill-rule="evenodd"/><path d="M521.4,341.63a215.81,215.81,0,0,1-7.19,29.75s-56.57-5.31-87-49.13l8.09-12.13S473.92,344.42,521.4,341.63Z" fill="#ff9500" fill-rule="evenodd"/><path d="M779.8,335.44a217.15,217.15,0,0,0-12.49,27.94s35.87,21,48,49.19l9.19-6.88S815.67,366.67,779.8,335.44Z" fill="#ff9500" fill-rule="evenodd"/><path d="M765.79,706.58s-32,17.41-65.14,6.23-46.19-59.57-46.19-59.57,13.82,37.48,49.28,52C733.11,717.36,765.79,706.58,765.79,706.58Z" fill="#ffc900" fill-rule="evenodd"/><path d="M197,354.66s8.6-136.11,103.66-192.93C300.68,161.73,243.82,217.53,197,354.66Z" fill="#fff" fill-rule="evenodd"/><path d="M563.47,873.27s16.64-45.62,114-91.08c0,0-46.41-36.73-94.86-32.37,0,0-33.07,31.25-64.06,116.64Z" fill-rule="evenodd" fill="url(#Áåçûìÿííûé_ãðàäèåíò_105)" style="mix-blend-mode:screen"/><path d="M268.33,772.56s9.15-72.45-16.41-126.75L271,643.46s32.91,54.74,9.88,133.37Z" fill-rule="evenodd" fill="url(#Áåçûìÿííûé_ãðàäèåíò_105-2)" style="mix-blend-mode:screen"/><path d="M807.61,262s10.83-47.5-41.74-77c0,0-15.86,19.89-6.08,44.63C769.94,255.33,807.61,262,807.61,262Z" fill="#fff" fill-rule="evenodd"/><path d="M478.34,521.08s3.05-126.89-163.68-106.24C314.66,414.84,423.6,428.66,478.34,521.08Z" fill-rule="evenodd" fill="url(#Áåçûìÿííûé_ãðàäèåíò_267)"/><path d="M502.86,636.07S448.58,650,426.67,619,416,547.85,416,547.85s-5.55,36.59,19.74,61.2S502.86,636.07,502.86,636.07Z" fill="#ffc900" fill-rule="evenodd"/><path d="M478.34,521.08S437,435.35,314.66,414.84C314.66,414.84,390.25,439.29,478.34,521.08Z" fill="#ffe000" fill-rule="evenodd"/><path d="M502.86,636.07S429,624.72,416,547.85c0,0-5.84,41.63,17,66.76C459.35,643.46,502.86,636.07,502.86,636.07Z" fill-rule="evenodd" fill="url(#Áåçûìÿííûé_ãðàäèåíò_88)"/><path d="M729.85,853.81s-10.64-8.52-32.53,16.3c-27.23,30.87-4,83.83-4,83.83l36.56-5.14Z" fill-rule="evenodd" fill="url(#Áåçûìÿííûé_ãðàäèåíò_160-2)"/><path d="M746.16,848.92S726.3,799.4,712.6,796.4s-27.26,4.82-28.2,22,10.32,45.51,24.5,49.77S746.16,848.92,746.16,848.92Z" fill-rule="evenodd" fill="url(#Áåçûìÿííûé_ãðàäèåíò_160-3)"/><path d="M415.36,556.79s18.17-13.48,25.93-8.94c7.2,4.21-3.33,44.53-1.64,72.94C439.65,620.79,413.13,605.76,415.36,556.79Z" fill-rule="evenodd" fill="url(#Áåçûìÿííûé_ãðàäèåíò_156)"/><path d="M805.27,806.68,727.62,978.44s-23.06.89-37.5-15.89l62.63-168.7S781.82,793.43,805.27,806.68Z" fill-rule="evenodd" fill="url(#Áåçûìÿííûé_ãðàäèåíò_279)"/><path d="M712.5,948.2s23.08,19.09,46.85,15.86l9.59-19-8.09-7.21s29.29-17.8,32.48-62.45l-5.12-3s9.72-18.31,7.74-39c0,0-38.43-14.43-59.48-15,0,0-10.33,12.49-8.4,25l-7.17-1.86s-20,47.8-16,73.14l13.49,9.3S712.88,938.39,712.5,948.2Z" fill-rule="evenodd" fill="url(#Áåçûìÿííûé_ãðàäèåíò_146-2)"/><ellipse cx="846.05" cy="660.16" rx="137.37" ry="88.98" transform="translate(-82.12 1198.78) rotate(-68.09)" opacity="0.52" fill="url(#Áåçûìÿííûé_ãðàäèåíò_167)"/><path d="M724,615.85c-34.19,85-13.9,172.46,41.76,197.91.66.3,26.35,7.9,27,8.14C845.93,841.28,893.2,781.38,927,697.46c33.12-82.34,36.5-159.13-12.8-183.84-1.62-.81-20.11-8.27-21.82-8.95C839,483.21,760.9,524.15,724,615.85Zm27.53,11.07c27.93-69.43,85.88-111.51,129.41-94s56.22,88,28.29,157.43-85.87,111.5-129.4,94S723.64,696.35,751.56,626.92Z" fill-rule="evenodd" fill="url(#Áåçûìÿííûé_ãðàäèåíò_167-2)"/><path d="M751.56,626.92c-34.18,85-18.71,171.28,34.64,192.74s124.26-30.09,158.44-115.09S963.37,533.24,910,511.78,785.77,541.87,751.56,626.92ZM769.25,634c27.92-69.44,85.88-111.51,129.41-94S954.88,628,927,697.46s-85.87,111.51-129.41,94S741.33,703.47,769.25,634Z" fill-rule="evenodd" fill="url(#Áåçûìÿííûé_ãðàäèåíò_279-2)"/><path d="M906.59,655.79c8.39,7.71-3,35.44-10.28,36.17s-9.9-16-7.59-22.05S901.4,651,906.59,655.79Z" fill="#fff" fill-rule="evenodd"/><polygon points="788.21 872.37 729.88 845.99 791.22 865.39 788.21 872.37" fill-rule="evenodd" fill="url(#Áåçûìÿííûé_ãðàäèåíò_160-4)"/><polygon points="768.03 932.03 718.36 923.92 760.85 937.81 768.03 932.03" fill-rule="evenodd" fill="url(#Áåçûìÿííûé_ãðàäèåíò_160-5)"/><path d="M856.81,511.76l-27.39-7s-27.26,7.86-54.39,34l30.24,6.14S824.92,524.15,856.81,511.76Z" fill-rule="evenodd" fill="url(#Áåçûìÿííûé_ãðàäèåíò_169)" style="mix-blend-mode:screen"/></g></g></svg>