<svg xmlns="http://www.w3.org/2000/svg" xmlns:xlink="http://www.w3.org/1999/xlink" viewBox="0 0 1080 1080" height="66.61"><defs><linearGradient id="Áåçûìÿííûé_ãðàäèåíò_60" x1="3075.75" y1="1060.15" x2="3283.41" y2="1060.15" gradientTransform="matrix(-1, 0, 0, 1, 3809.82, -95.56)" gradientUnits="userSpaceOnUse"><stop offset="0" stop-color="#898989"/><stop offset="0.98" stop-color="#5d3b81"/></linearGradient><linearGradient id="Áåçûìÿííûé_ãðàäèåíò_160" x1="3630.79" y1="1059.04" x2="3630.79" y2="1030.05" gradientTransform="matrix(-1, 0, 0, 1, 3809.82, -95.56)" gradientUnits="userSpaceOnUse"><stop offset="0.01" stop-color="#3f1742"/><stop offset="1" stop-color="#531732"/></linearGradient><linearGradient id="Áåçûìÿííûé_ãðàäèåíò_60-2" x1="3561.4" y1="920.37" x2="3703.06" y2="920.37" xlink:href="#Áåçûìÿííûé_ãðàäèåíò_60"/><linearGradient id="Áåçûìÿííûé_ãðàäèåíò_146" x1="3609.19" y1="1067.16" x2="3609.19" y2="976.42" gradientTransform="matrix(-1, 0, 0, 1, 3809.82, -95.56)" gradientUnits="userSpaceOnUse"><stop offset="0.01" stop-color="#3f1742"/><stop offset="1" stop-color="#a43a45"/></linearGradient><linearGradient id="Áåçûìÿííûé_ãðàäèåíò_12" x1="3097.67" y1="1831.86" x2="3241.94" y2="1831.86" gradientTransform="matrix(-0.95, -0.32, -0.32, 0.95, 3938.75, 348.66)" gradientUnits="userSpaceOnUse"><stop offset="0.01" stop-color="#281742"/><stop offset="1" stop-color="#322d45"/></linearGradient><radialGradient id="Áåçûìÿííûé_ãðàäèåíò_103" cx="3174.01" cy="993.55" r="607.06" gradientTransform="matrix(-0.95, -0.32, -0.32, 0.95, 3938.75, 348.66)" gradientUnits="userSpaceOnUse"><stop offset="0.01" stop-color="gold"/><stop offset="0.2" stop-color="#fed400"/><stop offset="0.37" stop-color="#fbc900"/><stop offset="0.52" stop-color="#f6b800"/><stop offset="0.67" stop-color="#ef9f00"/><stop offset="0.81" stop-color="#e67f00"/><stop offset="0.82" stop-color="#e57c00"/><stop offset="0.85" stop-color="#e27504"/><stop offset="0.9" stop-color="#da620e"/><stop offset="0.95" stop-color="#ce431f"/><stop offset="0.96" stop-color="#ca3924"/></radialGradient><clipPath id="clip-path"><path d="M185.1,247C265.71,45,478.18-36.13,683.16,35.76c206.17,68.42,324.71,262.53,265,471.67s-288.61,310-330.71,336.45S553.4,929,553.4,929l-177.61,7.47L239.81,822s18.47-59.83,1.34-106.52S104.49,449,185.1,247Z" fill="none" clip-rule="evenodd"/></clipPath><linearGradient id="Áåçûìÿííûé_ãðàäèåíò_44" x1="3010.57" y1="1708.29" x2="3355.77" y2="1708.29" gradientTransform="matrix(-0.95, -0.32, -0.32, 0.95, 3938.75, 348.66)" gradientUnits="userSpaceOnUse"><stop offset="0.03" stop-color="#a5a4c1"/><stop offset="0.27" stop-color="#8268a9"/><stop offset="1" stop-color="#b8b8b8"/></linearGradient><linearGradient id="Áåçûìÿííûé_ãðàäèåíò_53" x1="2990.67" y1="1644.93" x2="3381.85" y2="1644.93" gradientTransform="matrix(-0.95, -0.32, -0.32, 0.95, 3938.75, 348.66)" gradientUnits="userSpaceOnUse"><stop offset="0.03" stop-color="#dfccdc"/><stop offset="0.27" stop-color="#9680b7"/><stop offset="1" stop-color="#cfcfcf"/></linearGradient><linearGradient id="Áåçûìÿííûé_ãðàäèåíò_319" x1="2990.67" y1="1650.82" x2="3381.85" y2="1650.82" gradientTransform="matrix(-0.95, -0.32, -0.32, 0.95, 3938.75, 348.66)" gradientUnits="userSpaceOnUse"><stop offset="0" stop-color="#540068"/><stop offset="1" stop-color="#90939a"/></linearGradient><linearGradient id="Áåçûìÿííûé_ãðàäèåíò_53-2" x1="3010.56" y1="1751.64" x2="3355.77" y2="1751.64" xlink:href="#Áåçûìÿííûé_ãðàäèåíò_53"/><linearGradient id="Áåçûìÿííûé_ãðàäèåíò_319-2" x1="3010.56" y1="1755.44" x2="3355.77" y2="1755.44" xlink:href="#Áåçûìÿííûé_ãðàäèåíò_319"/><radialGradient id="Áåçûìÿííûé_ãðàäèåíò_73" cx="-1457.64" cy="1406.71" r="209.12" gradientTransform="matrix(0, 0.79, -1, 0, 2110.97, 1729.84)" gradientUnits="userSpaceOnUse"><stop offset="0.01" stop-color="#ff9000"/><stop offset="0.26" stop-color="#fe8d03"/><stop offset="0.48" stop-color="#fa820c"/><stop offset="0.69" stop-color="#f4711c"/><stop offset="0.88" stop-color="#ec5831"/><stop offset="1" stop-color="#e54542"/></radialGradient><radialGradient id="Áåçûìÿííûé_ãðàäèåíò_79" cx="2943.19" cy="1188.24" r="177.49" gradientTransform="matrix(-0.95, -0.32, -0.32, 0.95, 3938.75, 348.66)" gradientUnits="userSpaceOnUse"><stop offset="0.01" stop-color="#fff"/><stop offset="0.24" stop-color="#fdfcfc"/><stop offset="0.44" stop-color="#f6f1f3"/><stop offset="0.63" stop-color="#ece0e5"/><stop offset="0.81" stop-color="#dcc7d0"/><stop offset="0.98" stop-color="#c9a7b6"/><stop offset="1" stop-color="#c7a4b3"/></radialGradient><clipPath id="clip-path-2"><path d="M721.23,569.27c-23.54,39.69-17.3,86.88,13.93,105.41s75.64,1.37,99.18-38.32S851.65,549.48,820.41,531,744.78,529.58,721.23,569.27Z" fill="none" clip-rule="evenodd"/></clipPath><radialGradient id="Áåçûìÿííûé_ãðàäèåíò_91" cx="2863.07" cy="1727.74" r="62.16" gradientTransform="matrix(-0.68, -0.4, -0.51, 0.86, 3593.74, 289.65)" gradientUnits="userSpaceOnUse"><stop offset="0.01" stop-color="#3b1400"/><stop offset="0.38" stop-color="#391203"/><stop offset="0.66" stop-color="#340d0d"/><stop offset="0.92" stop-color="#2b041d"/><stop offset="1" stop-color="#270024"/></radialGradient><linearGradient id="Áåçûìÿííûé_ãðàäèåíò_105" x1="3004.97" y1="1602.07" x2="3004.97" y2="1458.82" gradientTransform="matrix(-0.95, -0.32, -0.32, 0.95, 3938.75, 348.66)" gradientUnits="userSpaceOnUse"><stop offset="0.01" stop-color="#ffc048"/><stop offset="0.18" stop-color="#c59438"/><stop offset="0.4" stop-color="#806024"/><stop offset="0.6" stop-color="#493715"/><stop offset="0.78" stop-color="#211909"/><stop offset="0.92" stop-color="#090703"/><stop offset="1"/></linearGradient><linearGradient id="Áåçûìÿííûé_ãðàäèåíò_105-2" x1="3363.85" y1="1593.84" x2="3363.85" y2="1467.83" xlink:href="#Áåçûìÿííûé_ãðàäèåíò_105"/><radialGradient id="Áåçûìÿííûé_ãðàäèåíò_267" cx="3408.66" cy="813.04" r="113.54" gradientTransform="matrix(-0.99, -0.11, -0.11, 0.99, 3870.03, 51.9)" gradientUnits="userSpaceOnUse"><stop offset="0.01" stop-color="#bf6f00"/><stop offset="0.28" stop-color="#be6c03"/><stop offset="0.51" stop-color="#bd620e"/><stop offset="0.73" stop-color="#ba511f"/><stop offset="0.93" stop-color="#b73938"/><stop offset="1" stop-color="#b52f42"/></radialGradient><radialGradient id="Áåçûìÿííûé_ãðàäèåíò_88" cx="3354.73" cy="670.84" r="64.36" gradientTransform="matrix(-1, 0, 0, 1, 3809.82, -95.56)" gradientUnits="userSpaceOnUse"><stop offset="0.01" stop-color="#ff7a00"/><stop offset="0.27" stop-color="#fe7702"/><stop offset="0.49" stop-color="#f96c09"/><stop offset="0.69" stop-color="#f35b14"/><stop offset="0.89" stop-color="#e94223"/><stop offset="1" stop-color="#e2312e"/></radialGradient><linearGradient id="Áåçûìÿííûé_ãðàäèåíò_160-2" x1="3120.57" y1="650.93" x2="3120.57" y2="552.46" gradientTransform="matrix(-0.99, 0.17, 0.17, 0.99, 3689.56, -203.55)" xlink:href="#Áåçûìÿííûé_ãðàäèåíò_160"/><linearGradient id="Áåçûìÿííûé_ãðàäèåíò_160-3" x1="3103.78" y1="567.29" x2="3103.78" y2="492.12" gradientTransform="matrix(-0.99, 0.17, 0.17, 0.99, 3689.56, -203.55)" xlink:href="#Áåçûìÿííûé_ãðàäèåíò_160"/><linearGradient id="Áåçûìÿííûé_ãðàäèåíò_156" x1="3383.38" y1="717.82" x2="3383.38" y2="642.16" gradientTransform="matrix(-1, 0, 0, 1, 3809.82, -95.56)" gradientUnits="userSpaceOnUse"><stop offset="0.01" stop-color="#771742"/><stop offset="1" stop-color="#b82d3b"/></linearGradient><radialGradient id="Áåçûìÿííûé_ãðàäèåíò_279" cx="3079.23" cy="589.43" r="81.86" gradientTransform="matrix(-0.99, 0.17, 0.17, 0.99, 3689.56, -203.55)" gradientUnits="userSpaceOnUse"><stop offset="0.01" stop-color="#b8b5db"/><stop offset="0.34" stop-color="#b7b2d8"/><stop offset="0.62" stop-color="#b6a7ce"/><stop offset="0.88" stop-color="#b396bd"/><stop offset="1" stop-color="#b18bb3"/></radialGradient><linearGradient id="Áåçûìÿííûé_ãðàäèåíò_146-2" x1="3074.67" y1="671.4" x2="3074.67" y2="520.35" gradientTransform="matrix(-0.99, 0.17, 0.17, 0.99, 3689.56, -203.55)" xlink:href="#Áåçûìÿííûé_ãðàäèåíò_146"/><radialGradient id="Áåçûìÿííûé_ãðàäèåíò_167" cx="2834.49" cy="1318.78" r="113.74" gradientTransform="matrix(0, -1, -1.06, 0, 2253, 3497.15)" gradientUnits="userSpaceOnUse"><stop offset="0.01" stop-color="#847cb5"/><stop offset="0.42" stop-color="#877ab2"/><stop offset="0.77" stop-color="#9274a9"/><stop offset="1" stop-color="#9d6d9f"/></radialGradient><radialGradient id="Áåçûìÿííûé_ãðàäèåíò_167-2" cx="1388.22" cy="760.36" r="147.65" gradientTransform="translate(-552.2 -95.56)" xlink:href="#Áåçûìÿííûé_ãðàäèåíò_167"/><radialGradient id="Áåçûìÿííûé_ãðàäèåíò_279-2" cx="1407.36" cy="763.84" r="141.87" gradientTransform="translate(-552.2 -95.56)" xlink:href="#Áåçûìÿííûé_ãðàäèåíò_279"/><linearGradient id="Áåçûìÿííûé_ãðàäèåíò_169" x1="2959.59" y1="442.31" x2="2896.85" y2="258.43" gradientTransform="matrix(-0.99, 0.17, 0.17, 0.99, 3689.56, -203.55)" gradientUnits="userSpaceOnUse"><stop offset="0"/><stop offset="0.08" stop-color="#090703"/><stop offset="0.22" stop-color="#211909"/><stop offset="0.4" stop-color="#493715"/><stop offset="0.6" stop-color="#806024"/><stop offset="0.82" stop-color="#c59438"/><stop offset="0.99" stop-color="#ffc048"/></linearGradient><linearGradient id="Áåçûìÿííûé_ãðàäèåíò_160-4" x1="3044.35" y1="975.5" x2="3044.35" y2="948.47" xlink:href="#Áåçûìÿííûé_ãðàäèåíò_160"/><linearGradient id="Áåçûìÿííûé_ãðàäèåíò_160-5" x1="3062.12" y1="1042.52" x2="3062.12" y2="1028.29" xlink:href="#Áåçûìÿííûé_ãðàäèåíò_160"/><linearGradient id="Áåçûìÿííûé_ãðàäèåíò_169-2" x1="2991.09" y1="641.32" x2="2983.97" y2="597.36" gradientTransform="matrix(-1, 0, 0, 1, 3809.82, -95.56)" xlink:href="#Áåçûìÿííûé_ãðàäèåíò_169"/></defs><g style="isolation:isolate"><g id="Layer_1" data-name="Layer 1"><path d="M553.4,929s8.44,32.65,45.66,35.59c40.11,3.18,94.28-38.36,94.28-38.36l40.73,32s-84.28,54-145.15,43.36c-31.62-5.52-62.51-38.09-62.51-38.09S528.59,933.36,553.4,929Z" fill-rule="evenodd" fill="url(#Áåçûìÿííûé_ãðàäèåíò_60)"/><path d="M190.77,934.49H169.45s-11.68,10.35-12,22.26l27.12,6.73,16.07-5.69Z" fill-rule="evenodd" fill="url(#Áåçûìÿííûé_ãðàäèåíò_160)"/><path d="M248.42,760.62s-87-45.51-132.4,0C74.07,802.68,188.31,909.1,188.31,909.1s24.64,3.19,31.16-20.68c0,0-87.76-85.28-67.12-112.72,21.08-28,88.6,11.72,88.6,11.72Z" fill-rule="evenodd" fill="url(#Áåçûìÿííûé_ãðàäèåíò_60-2)"/><path d="M208.77,880.86s-21.36,5.9-24.86,24.49c0,0-9.71,21.2,6.17,42.69l-20.63,6.29s-7.51,10.36,0,17.27h51.23l14.47-56.67S233,889.57,208.77,880.86Z" fill-rule="evenodd" fill="url(#Áåçûìÿííûé_ãðàäèåíò_146)"/><path d="M419.68,1069.32s-45.16,19.08-84,1.92c-33.72-14.88-51.57-51.26-51.57-51.26Z" fill-rule="evenodd" fill="url(#Áåçûìÿííûé_ãðàäèåíò_12)"/><path d="M185.1,247C265.71,45,478.18-36.13,683.16,35.76c206.17,68.42,324.71,262.53,265,471.67s-288.61,310-330.71,336.45S553.4,929,553.4,929l-177.61,7.47L239.81,822s18.47-59.83,1.34-106.52S104.49,449,185.1,247Z" fill-rule="evenodd" fill="url(#Áåçûìÿííûé_ãðàäèåíò_103)"/><g style="mix-blend-mode:screen"><path d="M535.61,24.73c47.5,0,95.51,8.39,142.68,24.93,204,67.7,311.46,258.48,255.72,453.73C883.29,681.06,701.84,780.45,633.53,817.87c-10.28,5.63-18.39,10.07-23.91,13.55-35.76,22.48-57.78,64.64-66.17,83.26L380.9,921.52,256.43,816.73c4.75-19.86,13.09-66.68-1.46-106.34-2.24-6.12-5.95-14.6-10.64-25.34-31.19-71.37-114-260.95-45.55-432.56C227.1,181.52,274,123,334.33,83.32,392.61,45,462.22,24.73,535.61,24.73Zm0-14.73C383.44,10,246.28,93.71,185.1,247,104.49,449,224,668.77,241.15,715.47S239.81,822,239.81,822l136,114.48L553.4,929s22-58.64,64.06-85.12,271-127.3,330.71-336.45-58.84-403.25-265-471.67C633.76,18.43,583.94,10,535.61,10Z" fill="#ffff9a"/></g><g style="mix-blend-mode:screen"><g clip-path="url(#clip-path)"><rect x="104.49" y="-36.13" width="903.38" height="972.6" fill="#ff0"/><ellipse cx="522.88" cy="462.2" rx="448.38" ry="373.12" transform="translate(-71.62 827.7) rotate(-73.06)" fill="#ff0"/><ellipse cx="522.88" cy="462.2" rx="447.15" ry="372.1" transform="translate(-71.62 827.7) rotate(-73.06)" fill="#fafa00"/><ellipse cx="522.88" cy="462.2" rx="445.93" ry="371.08" transform="translate(-71.62 827.71) rotate(-73.06)" fill="#f5f500"/><ellipse cx="522.88" cy="462.2" rx="444.7" ry="370.06" transform="translate(-71.62 827.7) rotate(-73.06)" fill="#f0f000"/><ellipse cx="522.88" cy="462.2" rx="443.47" ry="369.04" transform="translate(-71.62 827.7) rotate(-73.06)" fill="#ecec00"/><ellipse cx="522.88" cy="462.2" rx="442.25" ry="368.02" transform="translate(-71.62 827.7) rotate(-73.06)" fill="#e7e700"/><ellipse cx="522.88" cy="462.2" rx="441.02" ry="367" transform="translate(-71.62 827.7) rotate(-73.06)" fill="#e2e200"/><ellipse cx="522.88" cy="462.2" rx="439.79" ry="365.98" transform="translate(-71.62 827.7) rotate(-73.06)" fill="#dede00"/><ellipse cx="522.88" cy="462.2" rx="438.56" ry="364.95" transform="translate(-71.62 827.71) rotate(-73.06)" fill="#d9d900"/><ellipse cx="522.88" cy="462.2" rx="437.34" ry="363.93" transform="translate(-71.62 827.7) rotate(-73.06)" fill="#d5d500"/><ellipse cx="522.88" cy="462.2" rx="436.11" ry="362.91" transform="translate(-71.62 827.7) rotate(-73.06)" fill="#d1d100"/><ellipse cx="522.88" cy="462.2" rx="434.88" ry="361.89" transform="translate(-71.63 827.7) rotate(-73.06)" fill="#cdcd00"/><ellipse cx="522.88" cy="462.2" rx="433.66" ry="360.87" transform="translate(-71.62 827.7) rotate(-73.06)" fill="#c8c800"/><ellipse cx="522.88" cy="462.2" rx="432.43" ry="359.85" transform="translate(-71.62 827.7) rotate(-73.06)" fill="#c4c400"/><ellipse cx="522.88" cy="462.2" rx="431.2" ry="358.83" transform="translate(-71.62 827.7) rotate(-73.06)" fill="#c0c000"/><ellipse cx="522.88" cy="462.2" rx="429.97" ry="357.81" transform="translate(-71.62 827.7) rotate(-73.06)" fill="#bcbc00"/><ellipse cx="522.88" cy="462.2" rx="428.75" ry="356.78" transform="translate(-71.62 827.7) rotate(-73.06)" fill="#b8b800"/><ellipse cx="522.88" cy="462.2" rx="427.52" ry="355.76" transform="translate(-71.63 827.7) rotate(-73.06)" fill="#b5b500"/><ellipse cx="522.88" cy="462.2" rx="426.29" ry="354.74" transform="translate(-71.62 827.71) rotate(-73.06)" fill="#b1b100"/><ellipse cx="522.88" cy="462.2" rx="425.07" ry="353.72" transform="translate(-71.62 827.7) rotate(-73.06)" fill="#adad00"/><ellipse cx="522.88" cy="462.2" rx="423.84" ry="352.7" transform="matrix(0.29, -0.96, 0.96, 0.29, -71.62, 827.7)" fill="#aa0"/><ellipse cx="522.88" cy="462.2" rx="422.61" ry="351.68" transform="translate(-71.62 827.7) rotate(-73.06)" fill="#a6a600"/><ellipse cx="522.88" cy="462.2" rx="421.38" ry="350.66" transform="translate(-71.63 827.7) rotate(-73.06)" fill="#a2a200"/><ellipse cx="522.88" cy="462.2" rx="420.16" ry="349.64" transform="translate(-71.62 827.7) rotate(-73.06)" fill="#9f9f00"/><ellipse cx="522.88" cy="462.2" rx="418.93" ry="348.62" transform="translate(-71.62 827.7) rotate(-73.06)" fill="#9c9c00"/><ellipse cx="522.88" cy="462.2" rx="417.7" ry="347.59" transform="translate(-71.62 827.7) rotate(-73.06)" fill="#989800"/><ellipse cx="522.88" cy="462.2" rx="416.47" ry="346.57" transform="translate(-71.62 827.7) rotate(-73.06)" fill="#959500"/><ellipse cx="522.88" cy="462.2" rx="415.25" ry="345.55" transform="translate(-71.62 827.7) rotate(-73.06)" fill="#929200"/><ellipse cx="522.88" cy="462.2" rx="414.02" ry="344.53" transform="translate(-71.62 827.7) rotate(-73.06)" fill="#8f8f00"/><ellipse cx="522.88" cy="462.2" rx="412.79" ry="343.51" transform="translate(-71.62 827.7) rotate(-73.06)" fill="#8b8b00"/><ellipse cx="522.88" cy="462.2" rx="411.57" ry="342.49" transform="translate(-71.62 827.7) rotate(-73.06)" fill="#880"/><ellipse cx="522.88" cy="462.2" rx="410.34" ry="341.47" transform="matrix(0.29, -0.96, 0.96, 0.29, -71.62, 827.7)" fill="#858500"/><ellipse cx="522.88" cy="462.2" rx="409.11" ry="340.45" transform="translate(-71.62 827.7) rotate(-73.06)" fill="#828200"/><ellipse cx="522.88" cy="462.2" rx="407.88" ry="339.42" transform="translate(-71.62 827.7) rotate(-73.06)" fill="olive"/><ellipse cx="522.88" cy="462.2" rx="406.66" ry="338.4" transform="translate(-71.62 827.7) rotate(-73.06)" fill="#7d7d00"/><ellipse cx="522.88" cy="462.2" rx="405.43" ry="337.38" transform="translate(-71.62 827.7) rotate(-73.06)" fill="#7a7a00"/><ellipse cx="522.88" cy="462.2" rx="404.2" ry="336.36" transform="translate(-71.62 827.7) rotate(-73.06)" fill="#770"/><ellipse cx="522.88" cy="462.2" rx="402.98" ry="335.34" transform="translate(-71.62 827.7) rotate(-73.06)" fill="#747400"/><ellipse cx="522.88" cy="462.2" rx="401.75" ry="334.32" transform="translate(-71.62 827.7) rotate(-73.06)" fill="#727200"/><ellipse cx="522.88" cy="462.2" rx="400.52" ry="333.3" transform="translate(-71.62 827.7) rotate(-73.06)" fill="#6f6f00"/><ellipse cx="522.88" cy="462.2" rx="399.29" ry="332.28" transform="translate(-71.62 827.7) rotate(-73.06)" fill="#6d6d00"/><ellipse cx="522.88" cy="462.2" rx="398.07" ry="331.25" transform="translate(-71.62 827.7) rotate(-73.06)" fill="#6a6a00"/><ellipse cx="522.88" cy="462.2" rx="396.84" ry="330.23" transform="translate(-71.62 827.7) rotate(-73.06)" fill="#686800"/><ellipse cx="522.88" cy="462.2" rx="395.61" ry="329.21" transform="translate(-71.62 827.7) rotate(-73.06)" fill="#656500"/><ellipse cx="522.88" cy="462.2" rx="394.39" ry="328.19" transform="translate(-71.62 827.7) rotate(-73.06)" fill="#636300"/><ellipse cx="522.88" cy="462.2" rx="393.16" ry="327.17" transform="translate(-71.62 827.7) rotate(-73.06)" fill="#616100"/><ellipse cx="522.88" cy="462.2" rx="391.93" ry="326.15" transform="translate(-71.62 827.7) rotate(-73.06)" fill="#5e5e00"/><ellipse cx="522.88" cy="462.2" rx="390.7" ry="325.13" transform="translate(-71.62 827.7) rotate(-73.06)" fill="#5c5c00"/><ellipse cx="522.88" cy="462.2" rx="389.48" ry="324.11" transform="translate(-71.62 827.71) rotate(-73.06)" fill="#5a5a00"/><ellipse cx="522.88" cy="462.2" rx="388.25" ry="323.08" transform="translate(-71.62 827.7) rotate(-73.06)" fill="#585800"/><ellipse cx="522.88" cy="462.2" rx="387.02" ry="322.06" transform="translate(-71.62 827.7) rotate(-73.06)" fill="#565600"/><ellipse cx="522.88" cy="462.2" rx="385.8" ry="321.04" transform="translate(-71.62 827.7) rotate(-73.06)" fill="#545400"/><ellipse cx="522.88" cy="462.2" rx="384.57" ry="320.02" transform="translate(-71.62 827.7) rotate(-73.06)" fill="#525200"/><ellipse cx="522.88" cy="462.2" rx="383.34" ry="319" transform="translate(-71.62 827.71) rotate(-73.06)" fill="#505000"/><ellipse cx="522.88" cy="462.2" rx="382.11" ry="317.98" transform="translate(-71.62 827.7) rotate(-73.06)" fill="#4e4e00"/><ellipse cx="522.88" cy="462.2" rx="380.89" ry="316.96" transform="translate(-71.62 827.7) rotate(-73.06)" fill="#4c4c00"/><ellipse cx="522.88" cy="462.2" rx="379.66" ry="315.94" transform="translate(-71.62 827.7) rotate(-73.06)" fill="#4a4a00"/><ellipse cx="522.88" cy="462.2" rx="378.43" ry="314.92" transform="translate(-71.62 827.7) rotate(-73.06)" fill="#484800"/><ellipse cx="522.88" cy="462.2" rx="377.21" ry="313.89" transform="translate(-71.62 827.71) rotate(-73.06)" fill="#464600"/><ellipse cx="522.88" cy="462.2" rx="375.98" ry="312.87" transform="translate(-71.62 827.7) rotate(-73.06)" fill="#440"/><ellipse cx="522.88" cy="462.2" rx="374.75" ry="311.85" transform="translate(-71.62 827.7) rotate(-73.06)" fill="#434300"/><ellipse cx="522.88" cy="462.2" rx="373.52" ry="310.83" transform="translate(-71.62 827.7) rotate(-73.06)" fill="#414100"/><ellipse cx="522.88" cy="462.2" rx="372.3" ry="309.81" transform="matrix(0.29, -0.96, 0.96, 0.29, -71.62, 827.7)" fill="#3f3f00"/><ellipse cx="522.88" cy="462.2" rx="371.07" ry="308.79" transform="translate(-71.62 827.7) rotate(-73.06)" fill="#3e3e00"/><ellipse cx="522.88" cy="462.2" rx="369.84" ry="307.77" transform="translate(-71.62 827.7) rotate(-73.06)" fill="#3c3c00"/><ellipse cx="522.88" cy="462.2" rx="368.62" ry="306.75" transform="translate(-71.62 827.7) rotate(-73.06)" fill="#3b3b00"/><ellipse cx="522.88" cy="462.2" rx="367.39" ry="305.72" transform="translate(-71.62 827.7) rotate(-73.06)" fill="#393900"/><ellipse cx="522.88" cy="462.2" rx="366.16" ry="304.7" transform="translate(-71.62 827.7) rotate(-73.06)" fill="#383800"/><ellipse cx="522.88" cy="462.2" rx="364.93" ry="303.68" transform="translate(-71.62 827.7) rotate(-73.06)" fill="#363600"/><ellipse cx="522.88" cy="462.2" rx="363.71" ry="302.66" transform="translate(-71.62 827.7) rotate(-73.06)" fill="#353500"/><ellipse cx="522.88" cy="462.2" rx="362.48" ry="301.64" transform="translate(-71.62 827.7) rotate(-73.06)" fill="#330"/><ellipse cx="522.88" cy="462.2" rx="361.25" ry="300.62" transform="translate(-71.62 827.7) rotate(-73.06)" fill="#323200"/><ellipse cx="522.88" cy="462.2" rx="360.02" ry="299.6" transform="translate(-71.62 827.7) rotate(-73.06)" fill="#313100"/><ellipse cx="522.88" cy="462.2" rx="358.8" ry="298.58" transform="translate(-71.62 827.7) rotate(-73.06)" fill="#2f2f00"/><ellipse cx="522.88" cy="462.2" rx="357.57" ry="297.55" transform="translate(-71.62 827.7) rotate(-73.06)" fill="#2e2e00"/><ellipse cx="522.88" cy="462.2" rx="356.34" ry="296.53" transform="translate(-71.62 827.7) rotate(-73.06)" fill="#2d2d00"/><ellipse cx="522.88" cy="462.2" rx="355.12" ry="295.51" transform="translate(-71.62 827.7) rotate(-73.06)" fill="#2b2b00"/><ellipse cx="522.88" cy="462.2" rx="353.89" ry="294.49" transform="translate(-71.62 827.7) rotate(-73.06)" fill="#2a2a00"/><ellipse cx="522.88" cy="462.2" rx="352.66" ry="293.47" transform="translate(-71.62 827.7) rotate(-73.06)" fill="#292900"/><ellipse cx="522.88" cy="462.2" rx="351.43" ry="292.45" transform="translate(-71.62 827.7) rotate(-73.06)" fill="#282800"/><ellipse cx="522.88" cy="462.2" rx="350.21" ry="291.43" transform="translate(-71.62 827.7) rotate(-73.06)" fill="#272700"/><ellipse cx="522.88" cy="462.2" rx="348.98" ry="290.41" transform="translate(-71.62 827.7) rotate(-73.06)" fill="#262600"/><ellipse cx="522.88" cy="462.2" rx="347.75" ry="289.39" transform="translate(-71.62 827.7) rotate(-73.06)" fill="#252500"/><ellipse cx="522.88" cy="462.2" rx="346.53" ry="288.36" transform="translate(-71.62 827.7) rotate(-73.06)" fill="#242400"/><ellipse cx="522.88" cy="462.2" rx="345.3" ry="287.34" transform="translate(-71.62 827.7) rotate(-73.06)" fill="#232300"/><ellipse cx="522.88" cy="462.2" rx="344.07" ry="286.32" transform="translate(-71.62 827.7) rotate(-73.06)" fill="#220"/><ellipse cx="522.88" cy="462.2" rx="342.84" ry="285.3" transform="translate(-71.62 827.7) rotate(-73.06)" fill="#212100"/><ellipse cx="522.88" cy="462.2" rx="341.62" ry="284.28" transform="translate(-71.62 827.7) rotate(-73.06)" fill="#202000"/><ellipse cx="522.88" cy="462.2" rx="340.39" ry="283.26" transform="translate(-71.62 827.7) rotate(-73.06)" fill="#1f1f00"/><ellipse cx="522.88" cy="462.2" rx="339.16" ry="282.24" transform="translate(-71.62 827.7) rotate(-73.06)" fill="#1e1e00"/><ellipse cx="522.88" cy="462.2" rx="337.94" ry="281.22" transform="translate(-71.62 827.7) rotate(-73.06)" fill="#1d1d00"/><ellipse cx="522.88" cy="462.2" rx="336.71" ry="280.19" transform="translate(-71.62 827.7) rotate(-73.06)" fill="#1c1c00"/><ellipse cx="522.88" cy="462.2" rx="335.48" ry="279.17" transform="translate(-71.62 827.7) rotate(-73.06)" fill="#1b1b00"/><ellipse cx="522.88" cy="462.2" rx="334.25" ry="278.15" transform="translate(-71.62 827.7) rotate(-73.06)" fill="#1a1a00"/><ellipse cx="522.88" cy="462.2" rx="333.03" ry="277.13" transform="translate(-71.62 827.7) rotate(-73.06)" fill="#1a1a00"/><ellipse cx="522.88" cy="462.2" rx="331.8" ry="276.11" transform="translate(-71.62 827.7) rotate(-73.06)" fill="#191900"/><ellipse cx="522.88" cy="462.2" rx="330.57" ry="275.09" transform="translate(-71.62 827.7) rotate(-73.06)" fill="#181800"/><ellipse cx="522.88" cy="462.2" rx="329.35" ry="274.07" transform="translate(-71.63 827.7) rotate(-73.06)" fill="#171700"/><ellipse cx="522.88" cy="462.2" rx="328.12" ry="273.05" transform="translate(-71.62 827.71) rotate(-73.06)" fill="#171700"/><ellipse cx="522.88" cy="462.2" rx="326.89" ry="272.02" transform="translate(-71.62 827.7) rotate(-73.06)" fill="#161600"/><ellipse cx="522.88" cy="462.2" rx="325.66" ry="271" transform="matrix(0.29, -0.96, 0.96, 0.29, -71.62, 827.7)" fill="#151500"/><ellipse cx="522.88" cy="462.2" rx="324.44" ry="269.98" transform="translate(-71.63 827.7) rotate(-73.06)" fill="#141400"/><ellipse cx="522.88" cy="462.2" rx="323.21" ry="268.96" transform="translate(-71.62 827.7) rotate(-73.06)" fill="#141400"/><ellipse cx="522.88" cy="462.2" rx="321.98" ry="267.94" transform="translate(-71.62 827.71) rotate(-73.06)" fill="#131300"/><ellipse cx="522.88" cy="462.2" rx="320.76" ry="266.92" transform="translate(-71.62 827.7) rotate(-73.06)" fill="#131300"/><ellipse cx="522.88" cy="462.2" rx="319.53" ry="265.9" transform="translate(-71.62 827.7) rotate(-73.06)" fill="#121200"/><ellipse cx="522.88" cy="462.2" rx="318.3" ry="264.88" transform="translate(-71.62 827.7) rotate(-73.06)" fill="#110"/><ellipse cx="522.88" cy="462.2" rx="317.07" ry="263.85" transform="translate(-71.62 827.7) rotate(-73.06)" fill="#110"/><ellipse cx="522.88" cy="462.2" rx="315.85" ry="262.83" transform="translate(-71.62 827.7) rotate(-73.06)" fill="#101000"/><ellipse cx="522.88" cy="462.2" rx="314.62" ry="261.81" transform="translate(-71.62 827.7) rotate(-73.06)" fill="#101000"/><ellipse cx="522.88" cy="462.2" rx="313.39" ry="260.79" transform="translate(-71.62 827.7) rotate(-73.06)" fill="#0f0f00"/><ellipse cx="522.88" cy="462.2" rx="312.16" ry="259.77" transform="translate(-71.62 827.7) rotate(-73.06)" fill="#0f0f00"/><ellipse cx="522.88" cy="462.2" rx="310.94" ry="258.75" transform="translate(-71.62 827.7) rotate(-73.06)" fill="#0e0e00"/><ellipse cx="522.88" cy="462.2" rx="309.71" ry="257.73" transform="translate(-71.63 827.7) rotate(-73.06)" fill="#0e0e00"/><ellipse cx="522.88" cy="462.2" rx="308.48" ry="256.71" transform="translate(-71.62 827.7) rotate(-73.06)" fill="#0d0d00"/><ellipse cx="522.88" cy="462.2" rx="307.26" ry="255.69" transform="matrix(0.29, -0.96, 0.96, 0.29, -71.62, 827.7)" fill="#0d0d00"/><ellipse cx="522.88" cy="462.2" rx="306.03" ry="254.66" transform="translate(-71.62 827.71) rotate(-73.06)" fill="#0c0c00"/><ellipse cx="522.88" cy="462.2" rx="304.8" ry="253.64" transform="translate(-71.63 827.7) rotate(-73.06)" fill="#0c0c00"/><ellipse cx="522.88" cy="462.2" rx="303.57" ry="252.62" transform="translate(-71.63 827.7) rotate(-73.06)" fill="#0b0b00"/><ellipse cx="522.88" cy="462.2" rx="302.35" ry="251.6" transform="translate(-71.62 827.7) rotate(-73.06)" fill="#0b0b00"/><ellipse cx="522.88" cy="462.2" rx="301.12" ry="250.58" transform="translate(-71.62 827.71) rotate(-73.06)" fill="#0b0b00"/><ellipse cx="522.88" cy="462.2" rx="299.89" ry="249.56" transform="translate(-71.62 827.7) rotate(-73.06)" fill="#0a0a00"/><ellipse cx="522.88" cy="462.2" rx="298.67" ry="248.54" transform="translate(-71.62 827.7) rotate(-73.06)" fill="#0a0a00"/><ellipse cx="522.88" cy="462.2" rx="297.44" ry="247.52" transform="translate(-71.62 827.7) rotate(-73.06)" fill="#090900"/><ellipse cx="522.88" cy="462.2" rx="296.21" ry="246.49" transform="translate(-71.62 827.7) rotate(-73.06)" fill="#090900"/><ellipse cx="522.88" cy="462.2" rx="294.98" ry="245.47" transform="translate(-71.62 827.7) rotate(-73.06)" fill="#090900"/><ellipse cx="522.88" cy="462.2" rx="293.76" ry="244.45" transform="translate(-71.62 827.7) rotate(-73.06)" fill="#080800"/><ellipse cx="522.88" cy="462.2" rx="292.53" ry="243.43" transform="translate(-71.63 827.7) rotate(-73.06)" fill="#080800"/><ellipse cx="522.88" cy="462.2" rx="291.3" ry="242.41" transform="translate(-71.62 827.7) rotate(-73.06)" fill="#080800"/><ellipse cx="522.88" cy="462.2" rx="290.08" ry="241.39" transform="translate(-71.62 827.7) rotate(-73.06)" fill="#070700"/><ellipse cx="522.88" cy="462.2" rx="288.85" ry="240.37" transform="translate(-71.62 827.7) rotate(-73.06)" fill="#070700"/><ellipse cx="522.88" cy="462.2" rx="287.62" ry="239.35" transform="translate(-71.63 827.7) rotate(-73.06)" fill="#070700"/><ellipse cx="522.88" cy="462.2" rx="286.39" ry="238.32" transform="translate(-71.62 827.71) rotate(-73.06)" fill="#070700"/><ellipse cx="522.88" cy="462.2" rx="285.17" ry="237.3" transform="translate(-71.62 827.7) rotate(-73.06)" fill="#060600"/><ellipse cx="522.88" cy="462.2" rx="283.94" ry="236.28" transform="translate(-71.62 827.7) rotate(-73.06)" fill="#060600"/><ellipse cx="522.88" cy="462.2" rx="282.71" ry="235.26" transform="translate(-71.62 827.7) rotate(-73.06)" fill="#060600"/><ellipse cx="522.88" cy="462.2" rx="281.49" ry="234.24" transform="matrix(0.29, -0.96, 0.96, 0.29, -71.62, 827.7)" fill="#060600"/><ellipse cx="522.88" cy="462.2" rx="280.26" ry="233.22" transform="translate(-71.62 827.7) rotate(-73.06)" fill="#050500"/><ellipse cx="522.88" cy="462.2" rx="279.03" ry="232.2" transform="translate(-71.63 827.7) rotate(-73.06)" fill="#050500"/><ellipse cx="522.88" cy="462.2" rx="277.8" ry="231.18" transform="translate(-71.62 827.7) rotate(-73.06)" fill="#050500"/><ellipse cx="522.88" cy="462.2" rx="276.58" ry="230.16" transform="translate(-71.62 827.7) rotate(-73.06)" fill="#050500"/><ellipse cx="522.88" cy="462.2" rx="275.35" ry="229.13" transform="translate(-71.62 827.7) rotate(-73.06)" fill="#050500"/><ellipse cx="522.88" cy="462.2" rx="274.12" ry="228.11" transform="translate(-71.63 827.7) rotate(-73.06)" fill="#040400"/><ellipse cx="522.88" cy="462.2" rx="272.9" ry="227.09" transform="translate(-71.62 827.7) rotate(-73.06)" fill="#040400"/><ellipse cx="522.88" cy="462.2" rx="271.67" ry="226.07" transform="translate(-71.62 827.71) rotate(-73.06)" fill="#040400"/><ellipse cx="522.88" cy="462.2" rx="270.44" ry="225.05" transform="translate(-71.62 827.7) rotate(-73.06)" fill="#040400"/><ellipse cx="522.88" cy="462.2" rx="269.21" ry="224.03" transform="translate(-71.62 827.7) rotate(-73.06)" fill="#040400"/><ellipse cx="522.88" cy="462.2" rx="267.99" ry="223.01" transform="translate(-71.63 827.7) rotate(-73.06)" fill="#030300"/><ellipse cx="522.88" cy="462.2" rx="266.76" ry="221.99" transform="translate(-71.63 827.7) rotate(-73.06)" fill="#030300"/><ellipse cx="522.88" cy="462.2" rx="265.53" ry="220.96" transform="translate(-71.62 827.71) rotate(-73.06)" fill="#030300"/><ellipse cx="522.88" cy="462.2" rx="264.3" ry="219.94" transform="translate(-71.62 827.7) rotate(-73.06)" fill="#030300"/><ellipse cx="522.88" cy="462.2" rx="263.08" ry="218.92" transform="translate(-71.62 827.7) rotate(-73.06)" fill="#030300"/><ellipse cx="522.88" cy="462.2" rx="261.85" ry="217.9" transform="translate(-71.62 827.7) rotate(-73.06)" fill="#030300"/><ellipse cx="522.88" cy="462.2" rx="260.62" ry="216.88" transform="translate(-71.63 827.7) rotate(-73.06)" fill="#030300"/><ellipse cx="522.88" cy="462.2" rx="259.4" ry="215.86" transform="translate(-71.62 827.7) rotate(-73.06)" fill="#020200"/><ellipse cx="522.88" cy="462.2" rx="258.17" ry="214.84" transform="translate(-71.62 827.7) rotate(-73.06)" fill="#020200"/><ellipse cx="522.88" cy="462.2" rx="256.94" ry="213.82" transform="translate(-71.62 827.7) rotate(-73.06)" fill="#020200"/><ellipse cx="522.88" cy="462.2" rx="255.71" ry="212.79" transform="translate(-71.62 827.7) rotate(-73.06)" fill="#020200"/><ellipse cx="522.88" cy="462.2" rx="254.49" ry="211.77" transform="translate(-71.62 827.7) rotate(-73.06)" fill="#020200"/><ellipse cx="522.88" cy="462.2" rx="253.26" ry="210.75" transform="translate(-71.62 827.7) rotate(-73.06)" fill="#020200"/><ellipse cx="522.88" cy="462.2" rx="252.03" ry="209.73" transform="translate(-71.62 827.71) rotate(-73.06)" fill="#020200"/><ellipse cx="522.88" cy="462.2" rx="250.81" ry="208.71" transform="translate(-71.62 827.7) rotate(-73.06)" fill="#020200"/><ellipse cx="522.88" cy="462.2" rx="249.58" ry="207.69" transform="translate(-71.62 827.7) rotate(-73.06)" fill="#020200"/><ellipse cx="522.88" cy="462.2" rx="248.35" ry="206.67" transform="translate(-71.63 827.7) rotate(-73.06)" fill="#020200"/><ellipse cx="522.88" cy="462.2" rx="247.12" ry="205.65" transform="matrix(0.29, -0.96, 0.96, 0.29, -71.62, 827.7)" fill="#010100"/><ellipse cx="522.88" cy="462.2" rx="245.9" ry="204.63" transform="translate(-71.63 827.7) rotate(-73.06)" fill="#010100"/><ellipse cx="522.88" cy="462.2" rx="244.67" ry="203.6" transform="translate(-71.62 827.71) rotate(-73.06)" fill="#010100"/><ellipse cx="522.88" cy="462.2" rx="243.44" ry="202.58" transform="translate(-71.62 827.7) rotate(-73.06)" fill="#010100"/><ellipse cx="522.88" cy="462.2" rx="242.22" ry="201.56" transform="translate(-71.62 827.7) rotate(-73.06)" fill="#010100"/><ellipse cx="522.88" cy="462.2" rx="240.99" ry="200.54" transform="translate(-71.62 827.7) rotate(-73.06)" fill="#010100"/><ellipse cx="522.88" cy="462.2" rx="239.76" ry="199.52" transform="matrix(0.29, -0.96, 0.96, 0.29, -71.62, 827.7)" fill="#010100"/><ellipse cx="522.88" cy="462.2" rx="238.53" ry="198.5" transform="translate(-71.62 827.7) rotate(-73.06)" fill="#010100"/><ellipse cx="522.88" cy="462.2" rx="237.31" ry="197.48" transform="translate(-71.62 827.7) rotate(-73.06)" fill="#010100"/><ellipse cx="522.88" cy="462.2" rx="236.08" ry="196.46" transform="translate(-71.62 827.7) rotate(-73.06)" fill="#010100"/><ellipse cx="522.88" cy="462.2" rx="234.85" ry="195.43" transform="matrix(0.29, -0.96, 0.96, 0.29, -71.62, 827.71)" fill="#010100"/><ellipse cx="522.88" cy="462.2" rx="233.63" ry="194.41" transform="translate(-71.62 827.7) rotate(-73.06)" fill="#010100"/><ellipse cx="522.88" cy="462.2" rx="232.4" ry="193.39" transform="translate(-71.63 827.7) rotate(-73.06)" fill="#010100"/><ellipse cx="522.88" cy="462.2" rx="231.17" ry="192.37" transform="translate(-71.63 827.7) rotate(-73.06)" fill="#010100"/><ellipse cx="522.88" cy="462.2" rx="229.94" ry="191.35" transform="matrix(0.29, -0.96, 0.96, 0.29, -71.62, 827.7)" fill="#010100"/><ellipse cx="522.88" cy="462.2" rx="228.72" ry="190.33" transform="matrix(0.29, -0.96, 0.96, 0.29, -71.62, 827.7)" fill="#010100"/><ellipse cx="522.88" cy="462.2" rx="227.49" ry="189.31" transform="translate(-71.62 827.7) rotate(-73.06)" fill="#010100"/><ellipse cx="522.88" cy="462.2" rx="226.26" ry="188.29" transform="translate(-71.63 827.7) rotate(-73.06)" fill="#010100"/><ellipse cx="522.88" cy="462.2" rx="225.04" ry="187.26" transform="translate(-71.62 827.7) rotate(-73.06)"/><ellipse cx="522.88" cy="462.2" rx="223.81" ry="186.24" transform="translate(-71.62 827.7) rotate(-73.06)"/><ellipse cx="522.88" cy="462.2" rx="222.58" ry="185.22" transform="translate(-71.62 827.71) rotate(-73.06)"/><ellipse cx="522.88" cy="462.2" rx="221.35" ry="184.2" transform="translate(-71.63 827.7) rotate(-73.06)"/><ellipse cx="522.88" cy="462.2" rx="220.13" ry="183.18" transform="translate(-71.62 827.7) rotate(-73.06)"/><ellipse cx="522.88" cy="462.2" rx="218.9" ry="182.16" transform="translate(-71.63 827.7) rotate(-73.06)"/><ellipse cx="522.88" cy="462.2" rx="217.67" ry="181.14" transform="translate(-71.62 827.7) rotate(-73.06)"/><ellipse cx="522.88" cy="462.2" rx="216.44" ry="180.12" transform="translate(-71.62 827.7) rotate(-73.06)"/><ellipse cx="522.88" cy="462.2" rx="215.22" ry="179.09" transform="translate(-71.62 827.7) rotate(-73.06)"/><ellipse cx="522.88" cy="462.2" rx="213.99" ry="178.07" transform="translate(-71.62 827.7) rotate(-73.06)"/><ellipse cx="522.88" cy="462.2" rx="212.76" ry="177.05" transform="translate(-71.62 827.7) rotate(-73.06)"/><ellipse cx="522.88" cy="462.2" rx="211.54" ry="176.03" transform="translate(-71.63 827.7) rotate(-73.06)"/><ellipse cx="522.88" cy="462.2" rx="210.31" ry="175.01" transform="translate(-71.62 827.71) rotate(-73.06)"/><ellipse cx="522.88" cy="462.2" rx="209.08" ry="173.99" transform="translate(-71.62 827.7) rotate(-73.06)"/><ellipse cx="522.88" cy="462.2" rx="207.85" ry="172.97" transform="translate(-71.62 827.7) rotate(-73.06)"/><ellipse cx="522.88" cy="462.2" rx="206.63" ry="171.95" transform="translate(-71.63 827.7) rotate(-73.06)"/><ellipse cx="522.88" cy="462.2" rx="205.4" ry="170.93" transform="translate(-71.63 827.7) rotate(-73.06)"/><ellipse cx="522.88" cy="462.2" rx="204.17" ry="169.9" transform="translate(-71.62 827.71) rotate(-73.06)"/><ellipse cx="522.88" cy="462.2" rx="202.95" ry="168.88" transform="matrix(0.29, -0.96, 0.96, 0.29, -71.62, 827.71)"/><ellipse cx="522.88" cy="462.2" rx="201.72" ry="167.86" transform="translate(-71.62 827.7) rotate(-73.06)"/><ellipse cx="522.88" cy="462.2" rx="200.49" ry="166.84" transform="translate(-71.62 827.7) rotate(-73.06)"/><ellipse cx="522.88" cy="462.2" rx="199.26" ry="165.82" transform="translate(-71.62 827.7) rotate(-73.06)"/><ellipse cx="522.88" cy="462.2" rx="198.04" ry="164.8" transform="translate(-71.62 827.7) rotate(-73.06)"/><ellipse cx="522.88" cy="462.2" rx="196.81" ry="163.78" transform="translate(-71.62 827.7) rotate(-73.06)"/><ellipse cx="522.88" cy="462.2" rx="195.58" ry="162.76" transform="matrix(0.29, -0.96, 0.96, 0.29, -71.62, 827.7)"/><ellipse cx="522.88" cy="462.2" rx="194.36" ry="161.73" transform="translate(-71.62 827.7) rotate(-73.06)"/><ellipse cx="522.88" cy="462.2" rx="193.13" ry="160.71" transform="translate(-71.62 827.7) rotate(-73.06)"/><ellipse cx="522.88" cy="462.2" rx="191.9" ry="159.69" transform="translate(-71.62 827.7) rotate(-73.06)"/><ellipse cx="522.88" cy="462.2" rx="190.67" ry="158.67" transform="translate(-71.62 827.7) rotate(-73.06)"/><ellipse cx="522.88" cy="462.2" rx="189.45" ry="157.65" transform="translate(-71.62 827.7) rotate(-73.06)"/><ellipse cx="522.88" cy="462.2" rx="188.22" ry="156.63" transform="translate(-71.62 827.71) rotate(-73.06)"/><ellipse cx="522.88" cy="462.2" rx="186.99" ry="155.61" transform="translate(-71.63 827.7) rotate(-73.06)"/><ellipse cx="522.88" cy="462.2" rx="185.77" ry="154.59" transform="translate(-71.63 827.69) rotate(-73.06)"/><ellipse cx="522.88" cy="462.2" rx="184.54" ry="153.56" transform="translate(-71.62 827.7) rotate(-73.06)"/><ellipse cx="522.88" cy="462.2" rx="183.31" ry="152.54" transform="translate(-71.62 827.7) rotate(-73.06)"/><ellipse cx="522.88" cy="462.2" rx="182.08" ry="151.52" transform="translate(-71.62 827.7) rotate(-73.06)"/><ellipse cx="522.88" cy="462.2" rx="180.86" ry="150.5" transform="matrix(0.29, -0.96, 0.96, 0.29, -71.62, 827.7)"/><ellipse cx="522.88" cy="462.2" rx="179.63" ry="149.48" transform="translate(-71.62 827.7) rotate(-73.06)"/><ellipse cx="522.88" cy="462.2" rx="178.4" ry="148.46" transform="translate(-71.62 827.7) rotate(-73.06)"/><ellipse cx="522.88" cy="462.2" rx="177.18" ry="147.44" transform="translate(-71.63 827.7) rotate(-73.06)"/><ellipse cx="522.88" cy="462.2" rx="175.95" ry="146.42" transform="translate(-71.62 827.7) rotate(-73.06)"/><ellipse cx="522.88" cy="462.2" rx="174.72" ry="145.4" transform="matrix(0.29, -0.96, 0.96, 0.29, -71.62, 827.7)"/><ellipse cx="522.88" cy="462.2" rx="173.49" ry="144.37" transform="translate(-71.63 827.7) rotate(-73.06)"/><ellipse cx="522.88" cy="462.2" rx="172.27" ry="143.35" transform="translate(-71.62 827.7) rotate(-73.06)"/><ellipse cx="522.88" cy="462.2" rx="171.04" ry="142.33" transform="translate(-71.63 827.7) rotate(-73.06)"/><ellipse cx="522.88" cy="462.2" rx="169.81" ry="141.31" transform="translate(-71.63 827.7) rotate(-73.06)"/><ellipse cx="522.88" cy="462.2" rx="168.58" ry="140.29" transform="translate(-71.62 827.7) rotate(-73.06)"/><ellipse cx="522.88" cy="462.2" rx="167.36" ry="139.27" transform="matrix(0.29, -0.96, 0.96, 0.29, -71.62, 827.7)"/><path d="M571.29,303.28c-73-22.25-153.92,30.86-180.65,118.63s10.79,177,83.83,199.21,153.92-30.87,180.66-118.64S644.33,325.53,571.29,303.28Z"/><ellipse cx="522.88" cy="462.2" rx="164.9" ry="137.23" transform="translate(-71.62 827.7) rotate(-73.06)"/><ellipse cx="522.88" cy="462.2" rx="163.68" ry="136.2" transform="translate(-71.62 827.7) rotate(-73.06)"/><path d="M570.22,306.8C498.8,285,419.71,337,393.57,422.8s10.56,173,82,194.8,150.51-30.19,176.65-116S641.64,328.55,570.22,306.8Z"/><ellipse cx="522.88" cy="462.2" rx="161.22" ry="134.16" transform="translate(-71.62 827.7) rotate(-73.06)"/><ellipse cx="522.88" cy="462.2" rx="159.99" ry="133.14" transform="translate(-71.62 827.7) rotate(-73.06)"/><ellipse cx="522.88" cy="462.2" rx="158.77" ry="132.12" transform="translate(-71.62 827.7) rotate(-73.06)"/><ellipse cx="522.88" cy="462.2" rx="157.54" ry="131.1" transform="translate(-71.63 827.7) rotate(-73.06)"/><path d="M568.43,312.67c-68.72-20.94-144.82,29-170,111.62s10.16,166.5,78.88,187.44,144.83-29.05,170-111.63S637.15,333.6,568.43,312.67Z"/><ellipse cx="522.88" cy="462.2" rx="155.09" ry="129.06" transform="translate(-71.62 827.7) rotate(-73.06)"/><path d="M567.72,315c-67.64-20.61-142.55,28.58-167.31,109.87s10,163.88,77.64,184.49S620.6,580.79,645.36,499.51,635.36,335.62,567.72,315Z"/><ellipse cx="522.88" cy="462.2" rx="152.63" ry="127.01" transform="translate(-71.62 827.71) rotate(-73.06)"/><ellipse cx="522.88" cy="462.2" rx="151.4" ry="125.99" transform="translate(-71.62 827.7) rotate(-73.06)"/><ellipse cx="522.88" cy="462.2" rx="150.18" ry="124.97" transform="translate(-71.63 827.7) rotate(-73.06)"/><path d="M566.29,319.71c-65.49-19.95-138,27.67-162,106.37s9.68,158.65,75.17,178.6,138-27.67,162-106.36S631.77,339.66,566.29,319.71Z"/><ellipse cx="522.88" cy="462.2" rx="147.72" ry="122.93" transform="translate(-71.62 827.7) rotate(-73.06)"/><ellipse cx="522.88" cy="462.2" rx="146.5" ry="121.91" transform="translate(-71.62 827.7) rotate(-73.06)"/><ellipse cx="522.88" cy="462.2" rx="145.27" ry="120.89" transform="translate(-71.63 827.69) rotate(-73.06)"/><ellipse cx="522.88" cy="462.2" rx="144.04" ry="119.87" transform="translate(-71.62 827.7) rotate(-73.06)"/><path d="M564.5,325.58c-62.79-19.13-132.32,26.53-155.3,102s9.28,152.12,72.07,171.24,132.32-26.53,155.3-102S627.29,344.71,564.5,325.58Z"/><ellipse cx="522.88" cy="462.2" rx="141.59" ry="117.82" transform="matrix(0.29, -0.96, 0.96, 0.29, -71.62, 827.71)"/><ellipse cx="522.88" cy="462.2" rx="140.36" ry="116.8" transform="translate(-71.62 827.7) rotate(-73.06)"/><ellipse cx="522.88" cy="462.2" rx="139.13" ry="115.78" transform="translate(-71.62 827.71) rotate(-73.06)"/><ellipse cx="522.88" cy="462.2" rx="137.91" ry="114.76" transform="translate(-71.63 827.7) rotate(-73.06)"/><ellipse cx="522.88" cy="462.2" rx="136.68" ry="113.74" transform="translate(-71.63 827.7) rotate(-73.06)"/></g></g><path d="M572.08,892.45l-82.78,182.6s-116.9,12-269.83-94.67L248,773.16S367.6,860.73,572.08,892.45Z" fill-rule="evenodd" fill="url(#Áåçûìÿííûé_ãðàäèåíò_44)"/><path d="M549.82,940.91s12.16,23.58,12.07,43l-33.39,4.65S325.72,933.5,239.81,822c0,0-12.43-23.26-16.45-57.25l25.06-4.12,1.87,19.24S379.65,926.6,549.82,940.91Z" fill-rule="evenodd" fill="url(#Áåçûìÿííûé_ãðàäèåíò_53)"/><path d="M561.89,983.93S314.06,932.12,223.36,764.74c0,0-.82,37.15,16.45,57.25,0,0,62.41,98.12,288.69,166.59Z" fill-rule="evenodd" opacity="0.5" fill="url(#Áåçûìÿííûé_ãðàäèåíò_319)" style="mix-blend-mode:multiply"/><path d="M507.8,1034.23l8.51,21.64-22.95,10.22s-173.34-37-266.58-138.76l-18-39.11,23.34.44S323.47,990.06,507.8,1034.23Z" fill-rule="evenodd" fill="url(#Áåçûìÿííûé_ãðàäèåíò_53-2)"/><path d="M516.31,1055.87s-186.54-34-307.54-167.65l18,39.11s76,94.18,266.58,138.76Z" fill-rule="evenodd" opacity="0.5" fill="url(#Áåçûìÿííûé_ãðàäèåíò_319-2)" style="mix-blend-mode:multiply"/><path d="M424.1,1028.54s-45.16-28.62-72.94-32.7C351.16,995.84,380.2,1019.67,424.1,1028.54Z" fill="#e2e0ff" fill-rule="evenodd"/><path d="M451.57,948S420.7,923.82,394.09,921C394.09,921,419.19,943.12,451.57,948Z" fill="#e2e0ff" fill-rule="evenodd"/><ellipse cx="758.67" cy="583.77" rx="147.4" ry="116" transform="translate(-69.63 1063.64) rotate(-67.66)" fill="url(#Áåçûìÿííûé_ãðàäèåíò_73)"/><path d="M704.43,699.23c51.19,21,115.83-18,144.2-87.2,11.63-28.35,15.42-57.35,12.25-83.11-4.43-37.23-23.28-67.76-53.49-80.18-39.52-16.2-86.85,3.19-119.49,44.65l-.08,0a177.72,177.72,0,0,0-24.68,42.48C634.7,605,653.17,678.18,704.43,699.23Z" fill-rule="evenodd" fill="url(#Áåçûìÿííûé_ãðàäèåíò_79)"/><g clip-path="url(#clip-path-2)"><rect x="697.53" y="514.45" width="160.5" height="176.73" transform="translate(-66.85 97.91) rotate(-6.91)" fill="#a45700"/><path d="M703.85,585.49C680.63,623.83,688.31,671,721,690.74s78,4.75,101.2-33.59,15.54-85.45-17.15-105.24S727.06,547.16,703.85,585.49Z" fill="#a45700"/><path d="M704.49,585.88c-23,37.92-15.36,84.52,17,104.1s77.15,4.7,100.1-33.22,15.37-84.52-17-104.09S727.45,548,704.49,585.88Z" fill="#a65900"/><path d="M705.14,586.27c-22.71,37.5-15.19,83.59,16.77,103s76.29,4.65,99-32.85,15.19-83.59-16.78-102.94S727.84,548.78,705.14,586.27Z" fill="#a95b00"/><ellipse cx="763.02" cy="621.32" rx="78.48" ry="66.91" transform="translate(-163.67 952.2) rotate(-58.8)" fill="#ab5e00"/><path d="M706.43,587.06c-22.19,36.66-14.85,81.72,16.4,100.64s74.59,4.55,96.78-32.11,14.86-81.72-16.39-100.65S728.63,550.4,706.43,587.06Z" fill="#ae6000"/><path d="M707.08,587.45c-21.94,36.24-14.69,80.79,16.21,99.49S797,691.44,819,655.2s14.68-80.79-16.21-99.5S729,551.21,707.08,587.45Z" fill="#b06200"/><path d="M707.73,587.84c-21.69,35.82-14.52,79.85,16,98.34s72.88,4.45,94.57-31.37,14.52-79.86-16-98.35S729.42,552,707.73,587.84Z" fill="#b26400"/><path d="M708.37,588.23c-21.43,35.41-14.34,78.92,15.84,97.2s72,4.39,93.46-31S832,575.5,801.84,557.22,729.81,552.83,708.37,588.23Z" fill="#b56600"/><path d="M709,588.62c-21.18,35-14.18,78,15.65,96S795.85,689,817,654s14.17-78-15.65-96S730.2,553.64,709,588.62Z" fill="#b76800"/><path d="M709.67,589c-20.93,34.56-14,77.05,15.46,94.89s70.32,4.29,91.25-30.28,14-77-15.46-94.89S730.6,554.45,709.67,589Z" fill="#b96a00"/><path d="M710.31,589.41c-20.67,34.14-13.83,76.11,15.28,93.74s69.47,4.24,90.14-29.91,13.84-76.12-15.27-93.74S731,555.26,710.31,589.41Z" fill="#bb6c00"/><ellipse cx="763.02" cy="621.32" rx="71.39" ry="60.86" transform="translate(-163.67 952.22) rotate(-58.81)" fill="#bd6e00"/><path d="M711.61,590.19c-20.17,33.31-13.5,74.25,14.9,91.44s67.76,4.13,87.93-29.17,13.5-74.25-14.9-91.45S731.77,556.88,711.61,590.19Z" fill="#bf7000"/><ellipse cx="763.02" cy="621.32" rx="69.62" ry="59.35" transform="translate(-163.67 952.21) rotate(-58.81)" fill="#c17200"/><ellipse cx="763.02" cy="621.32" rx="68.73" ry="58.6" transform="translate(-163.66 952.23) rotate(-58.81)" fill="#c37300"/><path d="M713.55,591.36c-19.41,32.06-13,71.45,14.33,88s65.21,4,84.62-28.08,13-71.45-14.34-88S733,559.31,713.55,591.36Z" fill="#c57500"/><path d="M714.19,591.76c-19.15,31.63-12.81,70.51,14.15,86.84s64.36,3.92,83.51-27.71,12.82-70.51-14.15-86.84S733.35,560.12,714.19,591.76Z" fill="#c77700"/><path d="M714.84,592.15c-18.9,31.21-12.65,69.58,14,85.69s63.51,3.87,82.41-27.34,12.65-69.58-14-85.69S733.74,560.93,714.84,592.15Z" fill="#c97900"/><path d="M715.49,592.54c-18.65,30.79-12.48,68.65,13.77,84.54s62.65,3.82,81.3-27,12.48-68.65-13.77-84.55S734.13,561.74,715.49,592.54Z" fill="#cb7a00"/><path d="M716.13,592.93c-18.39,30.38-12.31,67.71,13.59,83.39s61.8,3.77,80.19-26.61,12.31-67.71-13.58-83.39S734.53,562.55,716.13,592.93Z" fill="#cc7c00"/><ellipse cx="763.02" cy="621.32" rx="63.41" ry="54.06" transform="translate(-163.66 952.24) rotate(-58.81)" fill="#ce7d00"/><path d="M717.43,593.71c-17.89,29.54-12,65.85,13.21,81.1s60.1,3.66,78-25.88,12-65.84-13.21-81.09S735.31,564.18,717.43,593.71Z" fill="#d07f00"/><path d="M718.07,594.11c-17.63,29.11-11.8,64.91,13,79.94s59.24,3.61,76.87-25.51,11.8-64.91-13-79.94S735.7,565,718.07,594.11Z" fill="#d28100"/><path d="M718.72,594.5c-17.38,28.7-11.63,64,12.84,78.79s58.39,3.56,75.77-25.14,11.63-64-12.84-78.79S736.1,565.8,718.72,594.5Z" fill="#d38200"/><path d="M719.37,594.89c-17.13,28.28-11.46,63,12.65,77.64s57.54,3.51,74.66-24.77,11.46-63-12.65-77.65S736.49,566.61,719.37,594.89Z" fill="#d58400"/><path d="M720,595.28c-16.87,27.86-11.29,62.11,12.47,76.49s56.68,3.46,73.55-24.4,11.29-62.11-12.46-76.5S736.88,567.42,720,595.28Z" fill="#d68500"/><path d="M720.66,595.67C704,623.12,709.54,656.85,732.94,671s55.83,3.41,72.45-24,11.12-61.17-12.28-75.34S737.28,568.23,720.66,595.67Z" fill="#d88600"/><path d="M721.31,596.06c-16.37,27-10.95,60.25,12.09,74.2s55,3.35,71.34-23.68,11-60.24-12.09-74.19S737.67,569,721.31,596.06Z" fill="#d98800"/><path d="M722,596.45c-16.11,26.61-10.78,59.31,11.9,73s54.14,3.3,70.24-23.31,10.79-59.31-11.9-73S738.06,569.85,722,596.45Z" fill="#db8900"/><path d="M722.6,596.85C706.74,623,712,655.22,734.31,668.74s53.28,3.25,69.14-22.94,10.61-58.37-11.72-71.89S738.46,570.66,722.6,596.85Z" fill="#dc8a00"/><path d="M723.25,597.24C707.64,623,712.8,654.68,734.77,668s52.43,3.2,68-22.57,10.44-57.44-11.53-70.74S738.85,571.47,723.25,597.24Z" fill="#de8c00"/><ellipse cx="763.02" cy="621.32" rx="53.66" ry="45.75" transform="translate(-163.67 952.21) rotate(-58.8)" fill="#df8d00"/><path d="M724.54,598c-15.1,24.93-10.1,55.57,11.15,68.44s50.72,3.09,65.82-21.84,10.1-55.57-11.15-68.44S739.64,573.09,724.54,598Z" fill="#e08e00"/><ellipse cx="763.02" cy="621.32" rx="51.88" ry="44.23" transform="translate(-163.66 952.22) rotate(-58.81)" fill="#e28f00"/><path d="M725.83,598.8c-14.58,24.1-9.76,53.71,10.78,66.15s49,3,63.6-21.11,9.77-53.7-10.77-66.14S740.42,574.71,725.83,598.8Z" fill="#e39000"/><path d="M726.48,599.2c-14.33,23.67-9.59,52.77,10.59,65s48.16,2.93,62.5-20.74,9.59-52.77-10.59-65S740.81,575.52,726.48,599.2Z" fill="#e49200"/><path d="M727.13,599.59c-14.08,23.25-9.43,51.83,10.4,63.84s47.31,2.88,61.39-20.37,9.42-51.84-10.4-63.84S741.21,576.33,727.13,599.59Z" fill="#e59300"/><path d="M727.77,600c-13.82,22.84-9.25,50.9,10.22,62.69s46.46,2.83,60.28-20,9.26-50.91-10.21-62.69S741.6,577.14,727.77,600Z" fill="#e79400"/><path d="M728.42,600.37c-13.57,22.42-9.08,50,10,61.54s45.6,2.78,59.18-19.63,9.08-50-10-61.55S742,578,728.42,600.37Z" fill="#e89500"/><path d="M729.07,600.76c-13.32,22-8.92,49,9.84,60.39s44.75,2.73,58.07-19.27,8.91-49-9.84-60.39S742.39,578.76,729.07,600.76Z" fill="#e99600"/><path d="M729.71,601.15c-13.06,21.58-8.74,48.11,9.66,59.25s43.9,2.67,57-18.91,8.75-48.1-9.65-59.24S742.78,579.58,729.71,601.15Z" fill="#ea9700"/><path d="M730.36,601.55c-12.81,21.16-8.57,47.16,9.47,58.09s43,2.62,55.86-18.54,8.57-47.17-9.47-58.09S743.17,580.39,730.36,601.55Z" fill="#eb9800"/><path d="M731,601.94c-12.56,20.74-8.41,46.23,9.27,56.94s42.2,2.57,54.76-18.17,8.41-46.24-9.28-56.94S743.57,581.2,731,601.94Z" fill="#ec9900"/><path d="M731.65,602.33c-12.3,20.32-8.23,45.3,9.09,55.79s41.35,2.52,53.65-17.8,8.24-45.3-9.09-55.79S744,582,731.65,602.33Z" fill="#ed9900"/><path d="M732.3,602.72c-12,19.9-8.06,44.37,8.9,54.64s40.5,2.47,52.55-17.43,8.06-44.37-8.91-54.65S744.35,582.82,732.3,602.72Z" fill="#ee9a00"/><path d="M733,603.11c-11.8,19.49-7.9,43.43,8.71,53.49S781.3,659,793.1,639.53,801,596.1,784.39,586,744.74,583.63,733,603.11Z" fill="#ef9b00"/><path d="M733.59,603.5c-11.54,19.07-7.72,42.5,8.53,52.34s38.79,2.37,50.33-16.7,7.73-42.5-8.52-52.34S745.14,584.44,733.59,603.5Z" fill="#f09c00"/><path d="M734.24,603.89c-11.29,18.65-7.56,41.57,8.34,51.2s37.94,2.31,49.23-16.34,7.55-41.56-8.34-51.19S745.53,585.25,734.24,603.89Z" fill="#f09d00"/><path d="M734.89,604.29c-11,18.22-7.39,40.63,8.15,50s37.08,2.26,48.12-16,7.39-40.63-8.15-50S745.92,586.06,734.89,604.29Z" fill="#f19d00"/><ellipse cx="763.02" cy="621.32" rx="37.7" ry="32.14" transform="translate(-163.67 952.21) rotate(-58.81)" fill="#f29e00"/><path d="M736.18,605.07c-10.53,17.39-7,38.76,7.78,47.74s35.38,2.16,45.91-15.23,7-38.77-7.78-47.74S746.71,587.68,736.18,605.07Z" fill="#f39f00"/><path d="M736.83,605.46c-10.28,17-6.88,37.83,7.59,46.59s34.53,2.11,44.8-14.87,6.88-37.82-7.59-46.59S747.1,588.49,736.83,605.46Z" fill="#f4a000"/><path d="M737.47,605.85c-10,16.55-6.7,36.9,7.41,45.44s33.67,2.06,43.69-14.5,6.71-36.89-7.4-45.44S747.5,589.3,737.47,605.85Z" fill="#f4a000"/><path d="M738.12,606.24c-9.77,16.14-6.54,36,7.22,44.29s32.82,2,42.59-14.13,6.54-36-7.22-44.29S747.89,590.11,738.12,606.24Z" fill="#f5a100"/><path d="M738.77,606.64c-9.52,15.71-6.37,35,7,43.14s32,1.94,41.48-13.77,6.37-35-7-43.14S748.28,590.92,738.77,606.64Z" fill="#f6a100"/><path d="M739.41,607c-9.26,15.29-6.19,34.09,6.84,42s31.12,1.89,40.38-13.4,6.2-34.1-6.84-42S748.67,591.73,739.41,607Z" fill="#f6a200"/><path d="M740.06,607.42c-9,14.87-6,33.16,6.65,40.84s30.27,1.84,39.28-13,6-33.16-6.66-40.84S749.07,592.54,740.06,607.42Z" fill="#f7a300"/><path d="M740.71,607.81c-8.76,14.46-5.86,32.23,6.46,39.69s29.42,1.79,38.17-12.66,5.86-32.23-6.47-39.69S749.46,593.35,740.71,607.81Z" fill="#f7a300"/><path d="M741.35,608.2c-8.5,14-5.69,31.29,6.28,38.54s28.56,1.74,37.06-12.3,5.69-31.29-6.27-38.54S749.85,594.16,741.35,608.2Z" fill="#f8a400"/><path d="M742,608.59c-8.25,13.62-5.52,30.36,6.09,37.39s27.71,1.69,36-11.93,5.52-30.36-6.09-37.39S750.25,595,742,608.59Z" fill="#f9a400"/><path d="M742.65,609c-8,13.21-5.35,29.43,5.9,36.24s26.86,1.64,34.85-11.56,5.35-29.42-5.9-36.24S750.64,595.78,742.65,609Z" fill="#f9a500"/><path d="M743.29,609.38c-7.74,12.78-5.18,28.49,5.72,35.09s26,1.58,33.74-11.2,5.18-28.49-5.71-35.09S751,596.59,743.29,609.38Z" fill="#faa500"/><path d="M743.94,609.77c-7.49,12.36-5,27.56,5.53,33.94s25.15,1.53,32.64-10.83,5-27.56-5.53-33.94S751.43,597.4,743.94,609.77Z" fill="#faa500"/><path d="M744.59,610.16c-7.24,11.94-4.84,26.62,5.34,32.79s24.3,1.48,31.53-10.46,4.84-26.63-5.34-32.79S751.82,598.22,744.59,610.16Z" fill="#faa600"/><path d="M745.23,610.55c-7,11.53-4.67,25.69,5.16,31.64s23.45,1.43,30.42-10.1,4.67-25.69-5.15-31.63S752.21,599,745.23,610.55Z" fill="#fba600"/><path d="M745.88,610.94c-6.72,11.11-4.5,24.76,5,30.49s22.59,1.38,29.32-9.73,4.5-24.75-5-30.49S752.6,599.84,745.88,610.94Z" fill="#fba700"/><path d="M746.53,611.33c-6.47,10.69-4.33,23.83,4.78,29.34s21.74,1.33,28.21-9.36,4.33-23.82-4.78-29.34S753,600.65,746.53,611.33Z" fill="#fca700"/><path d="M747.17,611.73C741,622,743,634.61,751.77,639.91s20.89,1.28,27.1-9S783,608,774.28,602.73,753.39,601.46,747.17,611.73Z" fill="#fca700"/><path d="M747.82,612.12c-6,9.85-4,22,4.41,27s20,1.22,26-8.63,4-22-4.41-27S753.78,602.27,747.82,612.12Z" fill="#fca700"/><path d="M748.47,612.51c-5.71,9.43-3.83,21,4.22,25.89s19.18,1.17,24.89-8.26,3.82-21-4.22-25.89S754.18,603.08,748.47,612.51Z" fill="#fda800"/><path d="M749.11,612.9c-5.45,9-3.65,20.09,4,24.74s18.34,1.12,23.79-7.89,3.66-20.09-4-24.74S754.57,603.89,749.11,612.9Z" fill="#fda800"/><path d="M749.76,613.29c-5.2,8.59-3.48,19.16,3.84,23.59s17.49,1.07,22.69-7.53,3.48-19.15-3.85-23.58S755,604.7,749.76,613.29Z" fill="#fda800"/><path d="M750.41,613.68c-4.95,8.18-3.32,18.22,3.65,22.44s16.63,1,21.58-7.16S779,610.74,772,606.52,755.36,605.51,750.41,613.68Z" fill="#fda800"/><path d="M751.05,614.07c-4.69,7.76-3.14,17.29,3.47,21.29s15.78,1,20.47-6.79,3.15-17.29-3.46-21.29S755.75,606.32,751.05,614.07Z" fill="#fea900"/><path d="M751.7,614.47c-4.44,7.33-3,16.35,3.28,20.14s14.93.91,19.37-6.43,3-16.35-3.28-20.14S756.14,607.13,751.7,614.47Z" fill="#fea900"/><path d="M752.35,614.86c-4.19,6.92-2.81,15.42,3.09,19s14.07.85,18.26-6.06,2.8-15.42-3.09-19S756.53,607.94,752.35,614.86Z" fill="#fea900"/><path d="M753,615.25c-3.93,6.5-2.63,14.48,2.91,17.84s13.22.8,17.15-5.69,2.64-14.49-2.9-17.84S756.93,608.75,753,615.25Z" fill="#fea900"/><path d="M753.64,615.64c-3.68,6.08-2.46,13.55,2.72,16.69s12.37.75,16-5.32,2.46-13.56-2.72-16.69S757.32,609.56,753.64,615.64Z" fill="#fea900"/><path d="M754.29,616c-3.43,5.66-2.3,12.62,2.53,15.54s11.51.7,14.94-5,2.29-12.61-2.53-15.54S757.71,610.37,754.29,616Z" fill="#fea900"/><path d="M754.93,616.42c-3.17,5.25-2.12,11.69,2.35,14.39s10.66.65,13.83-4.59,2.13-11.68-2.34-14.39S758.11,611.18,754.93,616.42Z" fill="#fa0"/><path d="M755.58,616.82c-2.92,4.82-2,10.74,2.16,13.23s9.81.6,12.73-4.22,1.95-10.75-2.16-13.24S758.5,612,755.58,616.82Z" fill="#fa0"/><path d="M756.23,617.21c-2.67,4.4-1.79,9.81,2,12.09s9,.54,11.62-3.86,1.79-9.82-2-12.09S758.89,612.8,756.23,617.21Z" fill="#fa0"/><path d="M756.87,617.6c-2.41,4-1.61,8.88,1.79,10.94s8.1.49,10.51-3.49,1.62-8.88-1.78-10.94S759.29,613.61,756.87,617.6Z" fill="#fa0"/><path d="M757.52,618c-2.16,3.57-1.44,8,1.59,9.79s7.26.44,9.42-3.12,1.44-7.95-1.6-9.79S759.68,614.42,757.52,618Z" fill="#fa0"/><path d="M758.17,618.38c-1.91,3.15-1.28,7,1.4,8.64s6.41.39,8.31-2.76,1.28-7-1.41-8.63S760.07,615.24,758.17,618.38Z" fill="#fa0"/><path d="M758.81,618.77c-1.65,2.73-1.1,6.08,1.22,7.49s5.55.34,7.2-2.39,1.11-6.08-1.22-7.49S760.47,616.05,758.81,618.77Z" fill="#fa0"/><path d="M759.46,619.16c-1.4,2.31-.94,5.15,1,6.34s4.7.29,6.1-2,.93-5.15-1-6.34S760.86,616.86,759.46,619.16Z" fill="#fa0"/><path d="M760.11,619.56a3.45,3.45,0,1,0,5-1.66A3.72,3.72,0,0,0,760.11,619.56Z" fill="#fa0"/><path d="M760.75,620a2.69,2.69,0,1,0,3.89-1.29A2.92,2.92,0,0,0,760.75,620Z" fill="#fa0"/><path d="M761.4,620.34a1.92,1.92,0,1,0,2.78-.92A2.08,2.08,0,0,0,761.4,620.34Z" fill="#fa0"/><path d="M762.05,620.73a1.15,1.15,0,1,0,1.67-.55A1.25,1.25,0,0,0,762.05,620.73Z" fill="#fa0"/></g><path d="M740.38,594.57c-16.64,28.06-12.23,61.43,9.85,74.53s53.49,1,70.13-27.09,12.24-61.44-9.85-74.54S757,566.5,740.38,594.57Z" fill-rule="evenodd" fill="url(#Áåçûìÿííûé_ãðàäèåíò_91)"/><path d="M714.36,554.29c-4.31,10.47-1.11,21.7,7.12,25.08s18.4-2.36,22.7-12.82,1.11-21.7-7.12-25.08S718.66,543.82,714.36,554.29Z" fill="#fff" fill-rule="evenodd"/><path d="M520.54,336.34a222.41,222.41,0,0,1-7.36,30.48s-57.95-5.44-89.09-50.32l8.28-12.43S471.91,339.2,520.54,336.34Z" fill="#ff9500" fill-rule="evenodd"/><path d="M785.2,330a221.5,221.5,0,0,0-12.8,28.62s36.74,21.49,49.19,50.38l9.41-7S821.94,362,785.2,330Z" fill="#ff9500" fill-rule="evenodd"/><path d="M770.85,710.14s-32.79,17.83-66.72,6.37-47.31-61-47.31-61,14.16,38.39,50.47,53.31C737.38,721.17,770.85,710.14,770.85,710.14Z" fill="#ffc900" fill-rule="evenodd"/><path d="M188.31,349.69s8.8-139.41,106.16-197.6C294.47,152.09,236.24,209.24,188.31,349.69Z" fill="#fff" fill-rule="evenodd"/><path d="M563.63,880.86s17-46.73,116.81-93.29c0,0-47.53-37.61-97.16-33.15,0,0-33.87,32-65.6,119.46Z" fill-rule="evenodd" fill="url(#Áåçûìÿííûé_ãðàäèåíò_105)" style="mix-blend-mode:screen"/><path d="M261.35,777.71s9.36-74.2-16.82-129.82l19.53-2.41s33.71,56.07,10.11,136.6Z" fill-rule="evenodd" fill="url(#Áåçûìÿííûé_ãðàäèåíò_105-2)" style="mix-blend-mode:screen"/><path d="M813.68,254.79s11.09-48.65-42.75-78.85c0,0-16.25,20.37-6.23,45.7C775.1,248,813.68,254.79,813.68,254.79Z" fill="#fff" fill-rule="evenodd"/><path d="M476.44,520.14s3.12-130-167.65-108.82C308.79,411.32,420.37,425.48,476.44,520.14Z" fill-rule="evenodd" fill="url(#Áåçûìÿííûé_ãðàäèåíò_267)"/><path d="M501.55,637.91s-55.59,14.28-78-17.49-10.9-72.86-10.9-72.86-5.67,37.47,20.23,62.68S501.55,637.91,501.55,637.91Z" fill="#ffc900" fill-rule="evenodd"/><path d="M476.44,520.14s-42.35-87.8-167.65-108.82C308.79,411.32,386.22,436.37,476.44,520.14Z" fill="#ffe000" fill-rule="evenodd"/><path d="M501.55,637.91s-75.66-11.62-88.94-90.35c0,0-6,42.64,17.46,68.37C457,645.48,501.55,637.91,501.55,637.91Z" fill-rule="evenodd" fill="url(#Áåçûìÿííûé_ãðàäèåíò_88)"/><path d="M734,860.93s-10.91-8.73-33.32,16.69c-27.89,31.62-4.1,85.86-4.1,85.86l37.45-5.27Z" fill-rule="evenodd" fill="url(#Áåçûìÿííûé_ãðàäèåíò_160-2)"/><path d="M750.74,855.92s-20.34-50.72-34.37-53.79-27.92,4.94-28.88,22.5,10.57,46.62,25.09,51S750.74,855.92,750.74,855.92Z" fill-rule="evenodd" fill="url(#Áåçûìÿííûé_ãðàäèåíò_160-3)"/><path d="M411.93,556.71s18.61-13.8,26.56-9.15c7.38,4.31-3.42,45.61-1.68,74.71C436.81,622.27,409.64,606.87,411.93,556.71Z" fill-rule="evenodd" fill="url(#Áåçûìÿííûé_ãðàäèåíò_156)"/><path d="M811.29,812.66,731.75,988.57s-23.61.92-38.41-16.27l64.15-172.79S787.27,799.08,811.29,812.66Z" fill-rule="evenodd" fill="url(#Áåçûìÿííûé_ãðàäèåíò_279)"/><path d="M716.26,957.6s23.65,19.56,48,16.25l9.82-19.51L765.78,947s30-18.23,33.28-64l-5.25-3.06s10-18.76,7.93-40c0,0-39.36-14.78-60.92-15.36,0,0-10.58,12.79-8.6,25.59l-7.35-1.91s-20.53,49-16.42,74.91l13.82,9.53S716.66,947.56,716.26,957.6Z" fill-rule="evenodd" fill="url(#Áåçûìÿííûé_ãðàäèåíò_146-2)"/><ellipse cx="853.05" cy="662.59" rx="140.69" ry="91.14" transform="translate(-79.99 1206.8) rotate(-68.09)" opacity="0.52" fill="url(#Áåçûìÿííûé_ãðàäèåíò_167)"/><path d="M728.07,617.2c-35,87.06-14.24,176.65,42.78,202.71.67.31,27,8.08,27.68,8.34,54.39,19.84,102.81-41.5,137.38-127.46,33.92-84.33,37.39-163-13.11-188.29-1.66-.83-20.6-8.47-22.34-9.17C845.81,481.35,765.84,523.28,728.07,617.2Zm28.21,11.35c28.6-71.12,88-114.21,132.54-96.28s57.57,90.12,29,161.23-88,114.21-132.55,96.28S727.68,699.66,756.28,628.55Z" fill-rule="evenodd" fill="url(#Áåçûìÿííûé_ãðàäèåíò_167-2)"/><path d="M756.28,628.55C721.27,715.6,737.11,804,791.76,826S919,795.13,954,708.08s19.19-175.49-35.46-197.46S791.31,541.43,756.28,628.55Zm18.11,7.28c28.6-71.11,88-114.21,132.54-96.27s57.58,90.12,29,161.23S848,815,803.37,797.07,745.79,707,774.39,635.83Z" fill-rule="evenodd" fill="url(#Áåçûìÿííûé_ãðàäèåíò_279-2)"/><path d="M918.73,675.93s32-104-27-137.63c0,0-54.41-3.27-91,58.37,0,0,10.95-12.87,47.42-17.76,0,0,19.8,80.1-10.16,147.5C838,726.41,897.13,737.13,918.73,675.93Z" fill-rule="evenodd" fill="url(#Áåçûìÿííûé_ãðàäèåíò_169)" style="mix-blend-mode:screen"/><path d="M915.05,658.12c8.6,7.89-3,36.29-10.52,37s-10.14-16.41-7.78-22.59S909.75,653.25,915.05,658.12Z" fill="#fff" fill-rule="evenodd"/><polygon points="793.81 879.94 734.07 852.92 796.89 872.79 793.81 879.94" fill-rule="evenodd" fill="url(#Áåçûìÿííûé_ãðàäèåíò_160-4)"/><polygon points="773.14 941.05 722.27 932.74 765.78 946.96 773.14 941.05" fill-rule="evenodd" fill="url(#Áåçûìÿííûé_ãðàäèåíò_160-5)"/><path d="M864.07,510.59,836,503.46s-27.92,8.05-55.71,34.81l31,6.29S831.41,523.29,864.07,510.59Z" fill-rule="evenodd" fill="url(#Áåçûìÿííûé_ãðàäèåíò_169-2)" style="mix-blend-mode:screen"/></g></g></svg>